<svg width="18" height="18" viewBox="0 0 18 18" fill="none" xmlns="http://www.w3.org/2000/svg">
<path d="M13.4782 1.31406C14.2338 1.31068 14.7529 1.30922 15.1483 1.3524C15.2768 1.36644 15.3842 1.38452 15.4754 1.40638L7.50407 9.37773C7.2844 9.5974 7.2844 9.95356 7.50407 10.1732C7.72374 10.3929 8.0799 10.3929 8.29956 10.1732L16.2709 2.20188C16.2928 2.29308 16.3109 2.40048 16.3249 2.52899C16.3681 2.92442 16.3666 3.44353 16.3632 4.19905L16.3549 6.06066C16.3535 6.37132 16.6043 6.62428 16.9149 6.62566C17.2256 6.62705 17.4785 6.37633 17.4799 6.06568L17.4884 4.17055C17.4916 3.45676 17.4942 2.87338 17.4432 2.40686C17.3903 1.92174 17.2736 1.49224 16.9876 1.12265C16.9257 1.04264 16.8588 0.966682 16.7876 0.895177C16.7145 0.821852 16.6367 0.753221 16.5546 0.689729C16.1851 0.403707 15.7556 0.28703 15.2704 0.234052C14.8039 0.183106 14.2205 0.185719 13.5068 0.188917L11.6116 0.197372C11.301 0.198758 11.0502 0.451719 11.0516 0.762376C11.053 1.07303 11.306 1.32375 11.6166 1.32236L13.4782 1.31406Z" fill="#949396"/>
<path d="M9.75674 2.58149C9.30252 2.57604 8.8022 2.57604 8.25243 2.57604H8.21606C6.83866 2.57604 5.75896 2.57603 4.90236 2.66884C4.0282 2.76355 3.31992 2.96029 2.71518 3.39966C2.34907 3.66565 2.02711 3.98761 1.76111 4.35372C1.32174 4.95846 1.125 5.66675 1.0303 6.5409C0.937489 7.3975 0.937494 8.4772 0.9375 9.85461V9.92248C0.937494 11.2999 0.937489 12.3796 1.0303 13.2362C1.125 14.1103 1.32174 14.8186 1.76111 15.4234C2.02711 15.7895 2.34907 16.1114 2.71518 16.3774C3.31992 16.8168 4.0282 17.0135 4.90236 17.1082C5.75894 17.2011 6.83862 17.2011 8.21599 17.201H8.28396C9.66132 17.2011 10.7411 17.2011 11.5976 17.1082C12.4718 17.0135 13.1801 16.8168 13.7848 16.3774C14.1509 16.1114 14.4729 15.7895 14.7389 15.4234C15.1783 14.8186 15.375 14.1103 15.4697 13.2362C15.5625 12.3796 15.5625 11.2999 15.5625 9.92255V9.88595C15.5625 9.33625 15.5625 8.83598 15.5571 8.3818C15.5533 8.07116 15.2985 7.82236 14.9879 7.82608C14.6772 7.82981 14.4284 8.08465 14.4321 8.39529C14.4375 8.84211 14.4375 9.33603 14.4375 9.88854C14.4375 11.3072 14.4367 12.326 14.3512 13.115C14.2669 13.8934 14.1056 14.3811 13.8287 14.7621C13.6321 15.0327 13.3942 15.2707 13.1236 15.4673C12.7426 15.7441 12.2549 15.9055 11.4765 15.9898C10.6875 16.0753 9.66868 16.076 8.25 16.076C6.83132 16.076 5.8125 16.0753 5.02353 15.9898C4.2451 15.9055 3.75744 15.7441 3.37643 15.4673C3.10583 15.2707 2.86786 15.0327 2.67126 14.7621C2.39444 14.3811 2.23309 13.8934 2.14875 13.115C2.06327 12.326 2.0625 11.3072 2.0625 9.88854C2.0625 8.46986 2.06327 7.45104 2.14875 6.66208C2.23309 5.88364 2.39444 5.39598 2.67126 5.01498C2.86786 4.74438 3.10583 4.50641 3.37643 4.3098C3.75744 4.03299 4.2451 3.87163 5.02353 3.78729C5.8125 3.70182 6.83132 3.70104 8.25 3.70104C8.80251 3.70104 9.29643 3.70105 9.74326 3.70641C10.0539 3.71013 10.3087 3.46133 10.3125 3.15069C10.3162 2.84005 10.0674 2.58521 9.75674 2.58149Z" fill="#949396"/>
</svg>
