<svg width="22" height="22" viewBox="0 0 22 22" fill="none" xmlns="http://www.w3.org/2000/svg">
<g filter="url(#filter0_d_644_573)">
<path d="M16.4733 1.60606C17.3967 1.60194 18.0312 1.60015 18.5145 1.65293C18.6716 1.67008 18.8028 1.69219 18.9143 1.7189L9.17156 11.4617C8.90307 11.7301 8.90307 12.1655 9.17156 12.4339C9.44004 12.7024 9.87535 12.7024 10.1438 12.4339L19.8866 2.69118C19.9133 2.80265 19.9354 2.93392 19.9526 3.09098C20.0053 3.57428 20.0036 4.20875 19.9994 5.13217L19.9893 7.40746C19.9876 7.78716 20.294 8.09633 20.6737 8.09802C21.0534 8.09972 21.3626 7.79329 21.3643 7.4136L21.3746 5.09733C21.3785 4.22492 21.3817 3.51191 21.3194 2.94171C21.2547 2.34878 21.1121 1.82384 20.7625 1.37212C20.6868 1.27434 20.6052 1.18149 20.5181 1.0941C20.4287 1.00448 20.3336 0.920598 20.2334 0.842996C19.7817 0.493414 19.2567 0.350809 18.6638 0.286058C18.0936 0.22379 17.3806 0.226984 16.5082 0.230892L14.1919 0.241227C13.8122 0.242921 13.5058 0.552095 13.5075 0.931787C13.5092 1.31148 13.8183 1.61791 14.198 1.61621L16.4733 1.60606Z" fill="#8C325B"/>
<path d="M11.9248 3.15515C11.3697 3.14849 10.7582 3.14849 10.0862 3.14849H10.0418C8.35828 3.14848 7.03865 3.14848 5.99169 3.26191C4.92328 3.37766 4.0576 3.61812 3.31847 4.15513C2.871 4.48023 2.47749 4.87374 2.15239 5.32121C1.61538 6.06034 1.37492 6.92602 1.25917 7.99443C1.14574 9.04138 1.14574 10.361 1.14575 12.0445V12.1275C1.14574 13.811 1.14574 15.1306 1.25917 16.1776C1.37492 17.246 1.61538 18.1116 2.15239 18.8508C2.47749 19.2982 2.871 19.6917 3.31847 20.0169C4.0576 20.5539 4.92328 20.7943 5.99169 20.9101C7.03863 21.0235 8.35824 21.0235 10.0417 21.0235H10.1248C11.8082 21.0235 13.1279 21.0235 14.1748 20.9101C15.2432 20.7943 16.1089 20.5539 16.848 20.0169C17.2955 19.6917 17.689 19.2982 18.0141 18.8508C18.5511 18.1116 18.7916 17.246 18.9073 16.1776C19.0208 15.1306 19.0208 13.811 19.0208 12.1276V12.0828C19.0208 11.411 19.0208 10.7995 19.0141 10.2444C19.0095 9.86475 18.6981 9.56066 18.3184 9.56521C17.9387 9.56976 17.6346 9.88123 17.6392 10.2609C17.6457 10.807 17.6458 11.4107 17.6458 12.086C17.6458 13.8199 17.6448 15.0652 17.5403 16.0294C17.4373 16.9809 17.24 17.5769 16.9017 18.0426C16.6614 18.3733 16.3706 18.6642 16.0398 18.9045C15.5742 19.2428 14.9781 19.44 14.0267 19.5431C13.0624 19.6475 11.8172 19.6485 10.0833 19.6485C8.34931 19.6485 7.10408 19.6475 6.13979 19.5431C5.18837 19.44 4.59234 19.2428 4.12667 18.9045C3.79594 18.6642 3.50509 18.3733 3.26479 18.0426C2.92646 17.5769 2.72925 16.9809 2.62617 16.0294C2.5217 15.0652 2.52075 13.8199 2.52075 12.086C2.52075 10.352 2.5217 9.10682 2.62617 8.14253C2.72925 7.19111 2.92646 6.59508 3.26479 6.12941C3.50508 5.79868 3.79594 5.50782 4.12667 5.26753C4.59234 4.9292 5.18837 4.73199 6.13979 4.62891C7.10408 4.52443 8.34931 4.52349 10.0833 4.52349C10.7585 4.52349 11.3622 4.5235 11.9083 4.53005C12.288 4.5346 12.5995 4.23051 12.604 3.85084C12.6086 3.47117 12.3045 3.1597 11.9248 3.15515Z" fill="#8C325B"/>
<path d="M20.6739 0.938785L20.5194 1.09275L20.6739 0.938783C20.5779 0.842501 20.4757 0.752382 20.368 0.669013C19.871 0.284401 19.3003 0.134265 18.6877 0.0673584C18.1051 0.00373363 17.3818 0.00697464 16.5196 0.0108387L16.5072 0.0108942L14.1909 0.0212289C13.6897 0.023465 13.2852 0.431575 13.2875 0.932769C13.2897 1.43396 13.6978 1.83845 14.199 1.83621L16.4743 1.82606C17.3792 1.82202 17.9907 1.8206 18.4543 1.8678L9.016 11.3061C8.6616 11.6605 8.6616 12.2351 9.016 12.5895C9.3704 12.9439 9.94499 12.9439 10.2994 12.5895L19.7377 3.1512C19.7849 3.61482 19.7835 4.22631 19.7794 5.13119L19.7693 7.40648C19.767 7.90768 20.1715 8.31579 20.6727 8.31802C21.1739 8.32026 21.582 7.91577 21.5843 7.41458L21.5946 5.09832L21.5947 5.08606C21.5985 4.22375 21.6018 3.50048 21.5381 2.91783C21.4712 2.30516 21.3211 1.73446 20.9365 1.23748C20.8552 1.13242 20.7675 1.03268 20.6739 0.938785ZM11.9275 2.93516C11.371 2.92849 10.7584 2.92849 10.0872 2.92849H10.0862H10.0418H10.0289C8.35611 2.92848 7.02677 2.92848 5.96799 3.04319C4.88086 3.16097 3.97204 3.40835 3.18915 3.97715C2.72301 4.31582 2.31308 4.72575 1.97441 5.19189C1.40561 5.97478 1.15823 6.8836 1.04045 7.97073C0.925737 9.02951 0.925744 10.3589 0.925752 12.0316L0.925752 12.0445V12.1275L0.925752 12.1404C0.925744 13.8131 0.925737 15.1425 1.04045 16.2013C1.15823 17.2884 1.40561 18.1972 1.97441 18.9801C2.31308 19.4462 2.72301 19.8562 3.18916 20.1948C3.97204 20.7636 4.88086 21.011 5.96799 21.1288C7.02676 21.2435 8.35608 21.2435 10.0288 21.2435H10.0417H10.1248H10.1376C11.8104 21.2435 13.1397 21.2435 14.1985 21.1288C15.2856 21.011 16.1945 20.7636 16.9773 20.1948C17.4435 19.8562 17.8534 19.4462 18.1921 18.9801C18.7609 18.1972 19.0083 17.2884 19.1261 16.2013C19.2408 15.1425 19.2408 13.8132 19.2408 12.1405V12.1276V12.0828V12.0822C19.2408 11.411 19.2408 10.7983 19.2341 10.2418C19.2281 9.74062 18.8169 9.33921 18.3158 9.34522C17.8146 9.35123 17.4132 9.76237 17.4192 10.2635C17.4257 10.8081 17.4258 11.4103 17.4258 12.086C17.4258 13.8249 17.4245 15.0561 17.3216 16.0058C17.2206 16.9385 17.0303 17.4913 16.7237 17.9133C16.497 18.2253 16.2226 18.4997 15.9105 18.7265C15.4886 19.033 14.9357 19.2233 14.003 19.3244C13.0533 19.4272 11.8222 19.4285 10.0833 19.4285C8.34435 19.4285 7.11316 19.4272 6.16349 19.3244C5.23079 19.2233 4.6779 19.033 4.25598 18.7265C3.94393 18.4997 3.6695 18.2253 3.44277 17.9133C3.13623 17.4913 2.94594 16.9385 2.84489 16.0058C2.742 15.0561 2.74075 13.8249 2.74075 12.086C2.74075 10.3471 2.742 9.1159 2.84489 8.16623C2.94594 7.23353 3.13623 6.68064 3.44277 6.25872C3.6695 5.94667 3.94393 5.67224 4.25599 5.44551C4.6779 5.13897 5.23079 4.94868 6.16349 4.84763C7.11316 4.74474 8.34435 4.74349 10.0833 4.74349C10.7589 4.74349 11.3612 4.7435 11.9057 4.75003C12.4069 4.75604 12.818 4.35464 12.824 3.85347C12.83 3.35231 12.4286 2.94117 11.9275 2.93516Z" stroke="#8C325B" stroke-width="0.44" stroke-linecap="round"/>
</g>
<defs>
<filter id="filter0_d_644_573" x="-3.29419" y="-0.210938" width="29.1106" height="29.6744" filterUnits="userSpaceOnUse" color-interpolation-filters="sRGB">
<feFlood flood-opacity="0" result="BackgroundImageFix"/>
<feColorMatrix in="SourceAlpha" type="matrix" values="0 0 0 0 0 0 0 0 0 0 0 0 0 0 0 0 0 0 127 0" result="hardAlpha"/>
<feOffset dy="4"/>
<feGaussianBlur stdDeviation="2"/>
<feComposite in2="hardAlpha" operator="out"/>
<feColorMatrix type="matrix" values="0 0 0 0 0 0 0 0 0 0 0 0 0 0 0 0 0 0 0.25 0"/>
<feBlend mode="normal" in2="BackgroundImageFix" result="effect1_dropShadow_644_573"/>
<feBlend mode="normal" in="SourceGraphic" in2="effect1_dropShadow_644_573" result="shape"/>
</filter>
</defs>
</svg>
