<svg width="15" height="15" viewBox="0 0 15 15" fill="none" xmlns="http://www.w3.org/2000/svg">
<path d="M11.2319 1.09506C11.8615 1.09225 12.2941 1.09103 12.6236 1.12702C12.7307 1.13871 12.8202 1.15378 12.8962 1.172L6.25339 7.81479C6.07033 7.99785 6.07033 8.29464 6.25339 8.4777C6.43645 8.66076 6.73325 8.66076 6.9163 8.4777L13.5591 1.83491C13.5773 1.91092 13.5924 2.00041 13.6041 2.1075C13.6401 2.43703 13.6388 2.86962 13.636 3.49922L13.6291 5.05056C13.628 5.30944 13.8369 5.52024 14.0958 5.5214C14.3546 5.52255 14.5654 5.31363 14.5666 5.05474L14.5736 3.47547C14.5763 2.88065 14.5785 2.3945 14.536 2.00573C14.4919 1.60146 14.3947 1.24354 14.1563 0.935556C14.1047 0.868885 14.049 0.805582 13.9896 0.745995C13.9287 0.684891 13.8639 0.627698 13.7955 0.574788C13.4875 0.336437 13.1296 0.239206 12.7254 0.195058C12.3366 0.152602 11.8505 0.15478 11.2556 0.157444L9.67635 0.164491C9.41747 0.165646 9.20854 0.376447 9.20969 0.635327C9.21085 0.894208 9.42165 1.10314 9.68053 1.10198L11.2319 1.09506Z" fill="#8C325B"/>
<path d="M8.13062 2.15125C7.7521 2.14672 7.33517 2.14672 6.87703 2.14672H6.84672C5.69888 2.14671 4.79913 2.14671 4.0853 2.22405C3.35684 2.30297 2.7666 2.46692 2.26265 2.83306C1.95756 3.05472 1.68926 3.32302 1.4676 3.62811C1.10145 4.13207 0.937504 4.7223 0.85858 5.45076C0.781241 6.1646 0.781245 7.06435 0.78125 8.21219V8.26875C0.781245 9.41658 0.781241 10.3163 0.85858 11.0302C0.937504 11.7586 1.10145 12.3489 1.4676 12.8528C1.68926 13.1579 1.95756 13.4262 2.26265 13.6479C2.7666 14.014 3.35684 14.178 4.0853 14.2569C4.79912 14.3342 5.69885 14.3342 6.84666 14.3342H6.90329C8.0511 14.3342 8.95088 14.3342 9.6647 14.2569C10.3932 14.178 10.9834 14.014 11.4874 13.6479C11.7924 13.4262 12.0607 13.1579 12.2824 12.8528C12.6485 12.3489 12.8125 11.7586 12.8914 11.0302C12.9688 10.3163 12.9688 9.41661 12.9687 8.26881V8.23831C12.9687 7.78022 12.9687 7.36333 12.9642 6.98485C12.9611 6.72598 12.7487 6.51865 12.4899 6.52175C12.231 6.52485 12.0237 6.73722 12.0268 6.99608C12.0312 7.36844 12.0312 7.78004 12.0312 8.24047C12.0312 9.4227 12.0306 10.2717 11.9594 10.9292C11.8891 11.5779 11.7546 11.9843 11.524 12.3018C11.3601 12.5273 11.1618 12.7256 10.9363 12.8894C10.6188 13.1201 10.2124 13.2546 9.56372 13.3248C8.90625 13.3961 8.05723 13.3967 6.875 13.3967C5.69277 13.3967 4.84375 13.3961 4.18628 13.3248C3.53758 13.2546 3.1312 13.1201 2.8137 12.8894C2.58819 12.7256 2.38989 12.5273 2.22605 12.3018C1.99537 11.9843 1.86091 11.5779 1.79063 10.9292C1.71939 10.2717 1.71875 9.4227 1.71875 8.24047C1.71875 7.05823 1.71939 6.20921 1.79063 5.55174C1.86091 4.90305 1.99537 4.49666 2.22605 4.17916C2.38989 3.95366 2.58819 3.75535 2.8137 3.59152C3.1312 3.36084 3.53758 3.22637 4.18628 3.15609C4.84375 3.08486 5.69277 3.08422 6.875 3.08422C7.33543 3.08422 7.74703 3.08422 8.11938 3.08869C8.37825 3.09179 8.59061 2.88445 8.59372 2.62559C8.59682 2.36672 8.38948 2.15436 8.13062 2.15125Z" fill="#8C325B"/>
</svg>
