<svg width="28" height="30" viewBox="0 0 28 30" fill="none" xmlns="http://www.w3.org/2000/svg">
<path fill-rule="evenodd" clip-rule="evenodd" d="M14 3.60415C10.2836 3.60415 7.27083 6.6169 7.27083 10.3333C7.27083 14.0497 10.2836 17.0625 14 17.0625C17.7164 17.0625 20.7292 14.0497 20.7292 10.3333C20.7292 6.6169 17.7164 3.60415 14 3.60415ZM9.39583 10.3333C9.39583 7.7905 11.4572 5.72915 14 5.72915C16.5428 5.72915 18.6042 7.7905 18.6042 10.3333C18.6042 12.8761 16.5428 14.9375 14 14.9375C11.4572 14.9375 9.39583 12.8761 9.39583 10.3333Z" fill="#8C325B"/>
<path fill-rule="evenodd" clip-rule="evenodd" d="M20.1857 0.883079C18.8889 0.7708 17.272 0.770806 15.2096 0.770813H12.7904C10.728 0.770806 9.11112 0.7708 7.8143 0.883079C6.49333 0.997448 5.40537 1.23433 4.42945 1.76722C3.05887 2.51561 1.9323 3.64219 1.18391 5.01276C0.651014 5.98868 0.414135 7.07665 0.299766 8.39761C0.187487 9.69443 0.187493 11.3113 0.1875 13.3737V17.8423C0.1875 17.9252 0.1875 17.9757 0.187975 18.0197C0.21844 20.8425 1.68366 23.3193 3.88456 24.7564C5.141 25.5768 6.63866 26.0598 8.24543 26.0772C8.2894 26.0776 8.33982 26.0776 8.4225 26.0776L8.43916 26.0776L8.4409 26.0776C8.53582 26.0782 8.62655 26.1168 8.69276 26.1848L8.6939 26.186L9.20394 26.7159C10.1185 27.6661 10.8797 28.4571 11.567 29.0004C12.2915 29.5731 13.0615 29.9767 14 29.9767C14.9385 29.9767 15.7085 29.5731 16.433 29.0004C17.1203 28.4571 17.8815 27.6662 18.796 26.716L19.3072 26.1848C19.3734 26.1168 19.4642 26.0782 19.5591 26.0776L19.5608 26.0776L19.5775 26.0776C19.6602 26.0776 19.7106 26.0776 19.7546 26.0772C21.3613 26.0598 22.859 25.5768 24.1154 24.7564C26.3163 23.3193 27.7816 20.8425 27.812 18.0197C27.8125 17.9755 27.8125 17.9248 27.8125 17.8414V13.3737C27.8125 11.3113 27.8125 9.69442 27.7002 8.39761C27.5859 7.07665 27.349 5.98868 26.8161 5.01276C26.0677 3.64219 24.9411 2.51561 23.5706 1.76722C22.5946 1.23433 21.5067 0.997448 20.1857 0.883079ZM5.44785 3.63229C6.0587 3.29874 6.8167 3.1024 7.99759 3.00016C9.19206 2.89674 10.7171 2.89581 12.8409 2.89581H15.1591C17.2829 2.89581 18.8079 2.89674 20.0024 3.00016C21.1833 3.1024 21.9413 3.29874 22.5521 3.63229C23.5652 4.18545 24.3979 5.01813 24.951 6.03117C25.2846 6.64201 25.4809 7.40002 25.5832 8.58091C25.6866 9.77538 25.6875 11.3004 25.6875 13.4242V17.8345C25.6875 17.8519 25.6875 17.8675 25.6875 17.8814C25.6875 17.9416 25.6874 17.9715 25.6871 17.9968C25.6693 19.655 24.9824 21.1524 23.8812 22.2317C22.6797 20.3993 20.6072 19.1875 18.25 19.1875H9.75C7.39275 19.1875 5.32031 20.3993 4.11882 22.2317C3.01763 21.1524 2.33075 19.655 2.31285 17.9968C2.31252 17.9657 2.3125 17.9276 2.3125 17.8345V13.4242C2.3125 11.3004 2.31343 9.77537 2.41685 8.58091C2.51909 7.40002 2.71543 6.64201 3.04898 6.03117C3.60213 5.01813 4.43482 4.18545 5.44785 3.63229ZM18.25 21.3125C19.8754 21.3125 21.3059 22.1551 22.1255 23.4295C21.394 23.7571 20.5849 23.9431 19.7316 23.9523C19.7006 23.9526 19.6625 23.9526 19.5693 23.9526L19.5474 23.9527C18.8829 23.9563 18.2478 24.2266 17.7844 24.7027L17.7691 24.7185L17.3172 25.188C16.3369 26.2066 15.6753 26.8906 15.1152 27.3334C14.5792 27.7571 14.2669 27.8517 14 27.8517C13.7331 27.8517 13.4208 27.7571 12.8848 27.3334C12.3247 26.8906 11.6631 26.2066 10.6828 25.188L10.2309 24.7185L10.2156 24.7027C9.75222 24.2266 9.11708 23.9563 8.45265 23.9527L8.43066 23.9526C8.33748 23.9526 8.29939 23.9526 8.26836 23.9523C7.41511 23.9431 6.60598 23.7571 5.87448 23.4295C6.69412 22.1551 8.12457 21.3125 9.75 21.3125H18.25Z" fill="#8C325B"/>
</svg>
