<svg width="18" height="17" viewBox="0 0 18 17" fill="none" xmlns="http://www.w3.org/2000/svg">
<path d="M1.29583 0.624938C1.22048 0.314136 0.915077 0.125177 0.613694 0.202885C0.312311 0.280593 0.129078 0.595542 0.204431 0.906343L0.993316 4.16017L1.72742 7.31888C2.03957 8.66202 2.28526 9.71923 2.57682 10.5405C2.8759 11.383 3.24265 12.037 3.83108 12.5386C3.88186 12.5819 3.9336 12.6239 3.98625 12.6648C4.59634 13.138 5.29858 13.3534 6.16272 13.4569C7.00514 13.5579 8.05932 13.5579 9.39858 13.5579H9.84376C11.0025 13.5579 11.9147 13.5579 12.6496 13.4813C13.4023 13.4028 14.0216 13.2399 14.5789 12.88C14.8433 12.7093 15.0889 12.5095 15.3115 12.2842C15.7509 11.8394 16.0405 11.2991 16.2804 10.627H12.7502C12.4395 10.627 12.1877 10.3673 12.1877 10.0469C12.1877 9.72652 12.4395 9.46681 12.7502 9.46681H16.6276C16.7193 9.11528 16.8121 8.72959 16.9114 8.30666L10.5002 8.30665C10.1895 8.30665 9.93771 8.04694 9.93771 7.72658C9.93771 7.40621 10.1895 7.1465 10.5002 7.1465L17.1807 7.1465C17.2921 6.65668 17.3795 6.23653 17.419 5.88002C17.4728 5.39447 17.4508 4.93213 17.2158 4.51C17.1153 4.32945 16.9896 4.1651 16.8428 4.02221C16.4995 3.68812 16.0686 3.55834 15.5982 3.49915C15.1449 3.44211 14.5691 3.44212 13.8704 3.44214L1.97886 3.44214L1.29583 0.624938Z" fill="#FAFAFA"/>
<path d="M7.066 16.2344C7.50201 16.2344 7.85547 15.8699 7.85547 15.4202C7.85547 14.9706 7.50201 14.6061 7.066 14.6061C6.62998 14.6061 6.27652 14.9706 6.27652 15.4202C6.27652 15.8699 6.62998 16.2344 7.066 16.2344Z" fill="#FAFAFA"/>
<path d="M11.8028 16.2344C12.2389 16.2344 12.5923 15.8699 12.5923 15.4202C12.5923 14.9706 12.2389 14.6061 11.8028 14.6061C11.3668 14.6061 11.0134 14.9706 11.0134 15.4202C11.0134 15.8699 11.3668 16.2344 11.8028 16.2344Z" fill="#FAFAFA"/>
</svg>
