<svg width="30" height="30" viewBox="0 0 30 30" fill="none" xmlns="http://www.w3.org/2000/svg">
<path fill-rule="evenodd" clip-rule="evenodd" d="M0.833252 6.50016C0.833252 4.99727 1.43027 3.55593 2.49298 2.49322C3.55569 1.43052 4.99703 0.833496 6.49992 0.833496H23.4999C25.0028 0.833496 26.4442 1.43052 27.5069 2.49322C28.5696 3.55593 29.1666 4.99727 29.1666 6.50016V23.5002C29.1666 25.0031 28.5696 26.4444 27.5069 27.5071C26.4442 28.5698 25.0028 29.1668 23.4999 29.1668H6.49992C4.99703 29.1668 3.55569 28.5698 2.49298 27.5071C1.43027 26.4444 0.833252 25.0031 0.833252 23.5002V6.50016ZM6.49992 3.66683C5.74847 3.66683 5.0278 3.96534 4.49645 4.49669C3.9651 5.02805 3.66659 5.74872 3.66659 6.50016V23.5002C3.66659 24.2516 3.9651 24.9723 4.49645 25.5036C5.0278 26.035 5.74847 26.3335 6.49992 26.3335H14.9999V16.4168H13.5833C13.2075 16.4168 12.8472 16.2676 12.5815 16.0019C12.3158 15.7362 12.1666 15.3759 12.1666 15.0002C12.1666 14.6244 12.3158 14.2641 12.5815 13.9984C12.8472 13.7328 13.2075 13.5835 13.5833 13.5835H14.9999V11.4585C14.9999 10.1435 15.5223 8.88229 16.4522 7.95243C17.382 7.02256 18.6432 6.50016 19.9583 6.50016H20.8083C21.184 6.50016 21.5443 6.64942 21.81 6.9151C22.0757 7.18077 22.2249 7.54111 22.2249 7.91683C22.2249 8.29255 22.0757 8.65289 21.81 8.91856C21.5443 9.18424 21.184 9.3335 20.8083 9.3335H19.9583C19.6792 9.3335 19.4029 9.38846 19.1451 9.49525C18.8872 9.60204 18.653 9.75857 18.4557 9.95589C18.2583 10.1532 18.1018 10.3875 17.995 10.6453C17.8882 10.9031 17.8333 11.1794 17.8333 11.4585V13.5835H20.8083C21.184 13.5835 21.5443 13.7328 21.81 13.9984C22.0757 14.2641 22.2249 14.6244 22.2249 15.0002C22.2249 15.3759 22.0757 15.7362 21.81 16.0019C21.5443 16.2676 21.184 16.4168 20.8083 16.4168H17.8333V26.3335H23.4999C24.2514 26.3335 24.972 26.035 25.5034 25.5036C26.0347 24.9723 26.3333 24.2516 26.3333 23.5002V6.50016C26.3333 5.74872 26.0347 5.02805 25.5034 4.49669C24.972 3.96534 24.2514 3.66683 23.4999 3.66683H6.49992Z" fill="#5D5B61" fill-opacity="0.7"/>
</svg>
