<svg width="38" height="38" viewBox="0 0 38 38" fill="none" xmlns="http://www.w3.org/2000/svg">
<g filter="url(#filter0_d_657_628)">
<path fill-rule="evenodd" clip-rule="evenodd" d="M4.83325 6.50016C4.83325 4.99727 5.43027 3.55593 6.49298 2.49322C7.55569 1.43052 8.99703 0.833496 10.4999 0.833496H27.4999C29.0028 0.833496 30.4442 1.43052 31.5069 2.49322C32.5696 3.55593 33.1666 4.99727 33.1666 6.50016V23.5002C33.1666 25.0031 32.5696 26.4444 31.5069 27.5071C30.4442 28.5698 29.0028 29.1668 27.4999 29.1668H10.4999C8.99703 29.1668 7.55569 28.5698 6.49298 27.5071C5.43027 26.4444 4.83325 25.0031 4.83325 23.5002V6.50016ZM10.4999 3.66683C9.74847 3.66683 9.0278 3.96534 8.49645 4.49669C7.9651 5.02805 7.66659 5.74872 7.66659 6.50016V23.5002C7.66659 24.2516 7.9651 24.9723 8.49645 25.5036C9.0278 26.035 9.74847 26.3335 10.4999 26.3335H18.9999V16.4168H17.5833C17.2075 16.4168 16.8472 16.2676 16.5815 16.0019C16.3158 15.7362 16.1666 15.3759 16.1666 15.0002C16.1666 14.6244 16.3158 14.2641 16.5815 13.9984C16.8472 13.7328 17.2075 13.5835 17.5833 13.5835H18.9999V11.4585C18.9999 10.1435 19.5223 8.88229 20.4522 7.95243C21.382 7.02256 22.6432 6.50016 23.9583 6.50016H24.8083C25.184 6.50016 25.5443 6.64942 25.81 6.9151C26.0757 7.18077 26.2249 7.54111 26.2249 7.91683C26.2249 8.29255 26.0757 8.65289 25.81 8.91856C25.5443 9.18424 25.184 9.3335 24.8083 9.3335H23.9583C23.6792 9.3335 23.4029 9.38846 23.1451 9.49525C22.8872 9.60204 22.653 9.75857 22.4557 9.95589C22.2583 10.1532 22.1018 10.3875 21.995 10.6453C21.8882 10.9031 21.8333 11.1794 21.8333 11.4585V13.5835H24.8083C25.184 13.5835 25.5443 13.7328 25.81 13.9984C26.0757 14.2641 26.2249 14.6244 26.2249 15.0002C26.2249 15.3759 26.0757 15.7362 25.81 16.0019C25.5443 16.2676 25.184 16.4168 24.8083 16.4168H21.8333V26.3335H27.4999C28.2514 26.3335 28.972 26.035 29.5034 25.5036C30.0347 24.9723 30.3333 24.2516 30.3333 23.5002V6.50016C30.3333 5.74872 30.0347 5.02805 29.5034 4.49669C28.972 3.96534 28.2514 3.66683 27.4999 3.66683H10.4999Z" fill="#5D5B61" fill-opacity="0.7" shape-rendering="crispEdges"/>
</g>
<defs>
<filter id="filter0_d_657_628" x="0.833252" y="0.833496" width="36.3333" height="36.3335" filterUnits="userSpaceOnUse" color-interpolation-filters="sRGB">
<feFlood flood-opacity="0" result="BackgroundImageFix"/>
<feColorMatrix in="SourceAlpha" type="matrix" values="0 0 0 0 0 0 0 0 0 0 0 0 0 0 0 0 0 0 127 0" result="hardAlpha"/>
<feOffset dy="4"/>
<feGaussianBlur stdDeviation="2"/>
<feComposite in2="hardAlpha" operator="out"/>
<feColorMatrix type="matrix" values="0 0 0 0 0 0 0 0 0 0 0 0 0 0 0 0 0 0 0.25 0"/>
<feBlend mode="normal" in2="BackgroundImageFix" result="effect1_dropShadow_657_628"/>
<feBlend mode="normal" in="SourceGraphic" in2="effect1_dropShadow_657_628" result="shape"/>
</filter>
</defs>
</svg>
