<svg width="18" height="12" viewBox="0 0 18 12" fill="none" xmlns="http://www.w3.org/2000/svg">
<path fill-rule="evenodd" clip-rule="evenodd" d="M13.0976 0.384675C12.241 0.312492 11.1613 0.312495 9.78394 0.3125H8.21606C6.83866 0.312495 5.75896 0.312492 4.90236 0.384675C4.0282 0.458337 3.31992 0.611356 2.71518 0.953089C2.34907 1.15997 2.02711 1.41039 1.76111 1.69514C1.63985 1.82495 1.53601 1.96206 1.4474 2.10798C1.17606 2.55486 1.05503 3.07305 0.996049 3.69098C0.937497 4.30438 0.937498 5.0563 0.9375 5.98341V6.0264C0.937494 7.09771 0.937489 7.93748 1.0303 8.60372C1.125 9.28362 1.32174 9.83451 1.76111 10.3049C2.02711 10.5896 2.34907 10.84 2.71518 11.0469C3.31992 11.3886 4.0282 11.5417 4.90236 11.6153C5.75894 11.6875 6.83862 11.6875 8.21599 11.6875H9.78395C11.1613 11.6875 12.2411 11.6875 13.0976 11.6153C13.9718 11.5417 14.6801 11.3886 15.2848 11.0469C15.6509 10.84 15.9729 10.5896 16.2389 10.3049C16.6783 9.83451 16.875 9.28362 16.9697 8.60372C17.0625 7.93749 17.0625 7.09774 17.0625 6.02645V5.98303C17.0625 5.04959 17.0625 4.29367 17.0027 3.67778C16.9424 3.05712 16.8186 2.53721 16.541 2.08902C16.4549 1.95012 16.3548 1.81927 16.2389 1.69514C15.9729 1.41039 15.6509 1.15997 15.2848 0.953089C14.6801 0.611356 13.9718 0.458337 13.0976 0.384675ZM3.37643 1.66098C3.75744 1.44568 4.2451 1.32018 5.02353 1.25458C5.81249 1.1881 6.83132 1.1875 8.25 1.1875H9.75C11.1687 1.1875 12.1875 1.1881 12.9765 1.25458C13.7549 1.32018 14.2426 1.44568 14.6236 1.66098C14.894 1.81382 15.1319 1.9988 15.3285 2.20915L13.9056 3.31585C12.6443 4.29682 11.7375 5.00077 10.9554 5.46489C10.1863 5.92131 9.60421 6.10438 9 6.10438C8.39579 6.10438 7.81369 5.92131 7.04456 5.46489C6.26246 5.00077 5.35569 4.29682 4.09445 3.31585L2.67154 2.20915C2.86809 1.9988 3.10596 1.81382 3.37643 1.66098ZM15.778 3.09697C15.8233 3.28377 15.8569 3.49686 15.8809 3.74369C15.9371 4.32288 15.9375 5.04615 15.9375 6C15.9375 7.10342 15.9367 7.89584 15.8513 8.50947C15.7669 9.11492 15.6056 9.49422 15.3287 9.79055C15.1321 10.001 14.8942 10.1861 14.6236 10.339C14.2426 10.5543 13.7549 10.6798 12.9765 10.7454C12.1875 10.8119 11.1687 10.8125 9.75 10.8125H8.25C6.83132 10.8125 5.81249 10.8119 5.02353 10.7454C4.2451 10.6798 3.75744 10.5543 3.37643 10.339C3.10583 10.1861 2.86786 10.001 2.67126 9.79055C2.39444 9.49422 2.23309 9.11492 2.14875 8.50947C2.06327 7.89584 2.0625 7.10342 2.0625 6C2.0625 5.05293 2.06285 4.33309 2.11796 3.75577C2.14201 3.50383 2.17598 3.28683 2.22203 3.09697L3.32938 3.95824C4.55358 4.91041 5.51297 5.6566 6.36216 6.16053C7.23136 6.67634 8.05091 6.97938 9 6.97938C9.94909 6.97938 10.7686 6.67634 11.6378 6.16053C12.487 5.6566 13.4464 4.91041 14.6706 3.95825L15.778 3.09697Z" fill="#5D5B61"/>
</svg>
