<svg width="30" height="30" viewBox="0 0 30 30" fill="none" xmlns="http://www.w3.org/2000/svg">
<path fill-rule="evenodd" clip-rule="evenodd" d="M0.833252 6.50016C0.833252 4.99727 1.43027 3.55593 2.49298 2.49322C3.55569 1.43052 4.99703 0.833496 6.49992 0.833496H23.4999C25.0028 0.833496 26.4442 1.43052 27.5069 2.49322C28.5696 3.55593 29.1666 4.99727 29.1666 6.50016V23.5002C29.1666 25.0031 28.5696 26.4444 27.5069 27.5071C26.4442 28.5698 25.0028 29.1668 23.4999 29.1668H6.49992C4.99703 29.1668 3.55569 28.5698 2.49298 27.5071C1.43027 26.4444 0.833252 25.0031 0.833252 23.5002V6.50016ZM6.49992 3.66683C5.74847 3.66683 5.0278 3.96534 4.49645 4.49669C3.9651 5.02805 3.66659 5.74872 3.66659 6.50016V23.5002C3.66659 24.2516 3.9651 24.9723 4.49645 25.5036C5.0278 26.035 5.74847 26.3335 6.49992 26.3335H23.4999C24.2514 26.3335 24.972 26.035 25.5034 25.5036C26.0347 24.9723 26.3333 24.2516 26.3333 23.5002V6.50016C26.3333 5.74872 26.0347 5.02805 25.5034 4.49669C24.972 3.96534 24.2514 3.66683 23.4999 3.66683H6.49992ZM14.9999 10.7502C13.8727 10.7502 12.7917 11.1979 11.9947 11.995C11.1977 12.792 10.7499 13.873 10.7499 15.0002C10.7499 16.1273 11.1977 17.2083 11.9947 18.0054C12.7917 18.8024 13.8727 19.2502 14.9999 19.2502C16.1271 19.2502 17.2081 18.8024 18.0051 18.0054C18.8022 17.2083 19.2499 16.1273 19.2499 15.0002C19.2499 13.873 18.8022 12.792 18.0051 11.995C17.2081 11.1979 16.1271 10.7502 14.9999 10.7502ZM7.91659 15.0002C7.91659 13.1215 8.66286 11.3199 9.99125 9.99149C11.3196 8.66311 13.1213 7.91683 14.9999 7.91683C16.8785 7.91683 18.6802 8.66311 20.0086 9.99149C21.337 11.3199 22.0833 13.1215 22.0833 15.0002C22.0833 16.8788 21.337 18.6805 20.0086 20.0088C18.6802 21.3372 16.8785 22.0835 14.9999 22.0835C13.1213 22.0835 11.3196 21.3372 9.99125 20.0088C8.66286 18.6805 7.91659 16.8788 7.91659 15.0002V15.0002ZM22.7916 9.3335C23.3552 9.3335 23.8957 9.10961 24.2942 8.7111C24.6927 8.31258 24.9166 7.77208 24.9166 7.2085C24.9166 6.64491 24.6927 6.10441 24.2942 5.70589C23.8957 5.30738 23.3552 5.0835 22.7916 5.0835C22.228 5.0835 21.6875 5.30738 21.289 5.70589C20.8905 6.10441 20.6666 6.64491 20.6666 7.2085C20.6666 7.77208 20.8905 8.31258 21.289 8.7111C21.6875 9.10961 22.228 9.3335 22.7916 9.3335Z" fill="#5D5B61" fill-opacity="0.7"/>
</svg>
