<svg width="38" height="38" viewBox="0 0 38 38" fill="none" xmlns="http://www.w3.org/2000/svg">
<g filter="url(#filter0_d_657_101)">
<path fill-rule="evenodd" clip-rule="evenodd" d="M4.83325 6.50016C4.83325 4.99727 5.43027 3.55593 6.49298 2.49322C7.55569 1.43052 8.99703 0.833496 10.4999 0.833496H27.4999C29.0028 0.833496 30.4442 1.43052 31.5069 2.49322C32.5696 3.55593 33.1666 4.99727 33.1666 6.50016V23.5002C33.1666 25.0031 32.5696 26.4444 31.5069 27.5071C30.4442 28.5698 29.0028 29.1668 27.4999 29.1668H10.4999C8.99703 29.1668 7.55569 28.5698 6.49298 27.5071C5.43027 26.4444 4.83325 25.0031 4.83325 23.5002V6.50016ZM10.4999 3.66683C9.74847 3.66683 9.0278 3.96534 8.49645 4.49669C7.9651 5.02805 7.66659 5.74872 7.66659 6.50016V23.5002C7.66659 24.2516 7.9651 24.9723 8.49645 25.5036C9.0278 26.035 9.74847 26.3335 10.4999 26.3335H27.4999C28.2514 26.3335 28.972 26.035 29.5034 25.5036C30.0347 24.9723 30.3333 24.2516 30.3333 23.5002V6.50016C30.3333 5.74872 30.0347 5.02805 29.5034 4.49669C28.972 3.96534 28.2514 3.66683 27.4999 3.66683H10.4999ZM18.9999 10.7502C17.8727 10.7502 16.7917 11.1979 15.9947 11.995C15.1977 12.792 14.7499 13.873 14.7499 15.0002C14.7499 16.1273 15.1977 17.2083 15.9947 18.0054C16.7917 18.8024 17.8727 19.2502 18.9999 19.2502C20.1271 19.2502 21.2081 18.8024 22.0051 18.0054C22.8022 17.2083 23.2499 16.1273 23.2499 15.0002C23.2499 13.873 22.8022 12.792 22.0051 11.995C21.2081 11.1979 20.1271 10.7502 18.9999 10.7502ZM11.9166 15.0002C11.9166 13.1215 12.6629 11.3199 13.9912 9.99149C15.3196 8.66311 17.1213 7.91683 18.9999 7.91683C20.8785 7.91683 22.6802 8.66311 24.0086 9.99149C25.337 11.3199 26.0833 13.1215 26.0833 15.0002C26.0833 16.8788 25.337 18.6805 24.0086 20.0088C22.6802 21.3372 20.8785 22.0835 18.9999 22.0835C17.1213 22.0835 15.3196 21.3372 13.9912 20.0088C12.6629 18.6805 11.9166 16.8788 11.9166 15.0002V15.0002ZM26.7916 9.3335C27.3552 9.3335 27.8957 9.10961 28.2942 8.7111C28.6927 8.31258 28.9166 7.77208 28.9166 7.2085C28.9166 6.64491 28.6927 6.10441 28.2942 5.70589C27.8957 5.30738 27.3552 5.0835 26.7916 5.0835C26.228 5.0835 25.6875 5.30738 25.289 5.70589C24.8905 6.10441 24.6666 6.64491 24.6666 7.2085C24.6666 7.77208 24.8905 8.31258 25.289 8.7111C25.6875 9.10961 26.228 9.3335 26.7916 9.3335Z" fill="#5D5B61" fill-opacity="0.7" shape-rendering="crispEdges"/>
</g>
<defs>
<filter id="filter0_d_657_101" x="0.833252" y="0.833496" width="36.3333" height="36.3335" filterUnits="userSpaceOnUse" color-interpolation-filters="sRGB">
<feFlood flood-opacity="0" result="BackgroundImageFix"/>
<feColorMatrix in="SourceAlpha" type="matrix" values="0 0 0 0 0 0 0 0 0 0 0 0 0 0 0 0 0 0 127 0" result="hardAlpha"/>
<feOffset dy="4"/>
<feGaussianBlur stdDeviation="2"/>
<feComposite in2="hardAlpha" operator="out"/>
<feColorMatrix type="matrix" values="0 0 0 0 0 0 0 0 0 0 0 0 0 0 0 0 0 0 0.25 0"/>
<feBlend mode="normal" in2="BackgroundImageFix" result="effect1_dropShadow_657_101"/>
<feBlend mode="normal" in="SourceGraphic" in2="effect1_dropShadow_657_101" result="shape"/>
</filter>
</defs>
</svg>
