<svg width="148" height="62" viewBox="0 0 148 62" fill="none" xmlns="http://www.w3.org/2000/svg">
<g clip-path="url(#clip0_63_1337)">
<path d="M24.4582 7.32495e-05C31.5786 7.32495e-05 37.6339 2.79041 41.9435 7.42653C46.1595 11.9622 48.6914 18.2611 48.8976 25.4325H48.9179V35.7114C48.9179 43.4046 46.3768 49.9461 42.0732 54.583C37.7228 59.2703 31.5852 61.9999 24.4601 61.9999C17.3157 61.9999 11.2426 59.1908 6.9291 54.5254C2.55246 49.792 0.0019849 43.1538 0.0019849 35.6151V34.6746H3.05176e-05V26.2884C3.05176e-05 18.5949 2.54132 12.0538 6.84468 7.41676C11.1951 2.72947 17.3329 -0.00012207 24.458 -0.00012207L24.4582 7.32495e-05ZM24.4582 1.63217C10.2879 1.63217 2.67246 12.7439 2.67246 26.3257L2.67441 35.652C2.67441 49.099 10.4126 60.368 24.4601 60.368C38.6302 60.368 46.2443 49.2019 46.2443 35.6204L46.2439 26.1604C46.1876 12.7621 38.4443 1.63197 24.458 1.63197L24.4582 1.63217Z" fill="white"/>
<path d="M70.3872 46.9132V47.2437C70.0839 47.2546 69.855 47.2796 69.6954 47.3127C69.538 47.3486 69.4032 47.4201 69.2955 47.5275C69.188 47.6351 69.1192 47.7726 69.0915 47.9435C69.0612 48.1117 69.0448 48.3541 69.0448 48.6654V53.677C69.0448 53.991 69.0612 54.2307 69.0915 54.3989C69.119 54.5698 69.188 54.7075 69.2955 54.8151C69.4032 54.9225 69.538 54.9942 69.6954 55.0299C69.8552 55.0659 70.0839 55.0876 70.3872 55.0987V55.4294C69.8689 55.3964 69.1853 55.3798 68.3361 55.3798C67.3824 55.3798 66.6766 55.3964 66.2189 55.4294V55.0987C66.6188 55.0821 66.9053 55.0381 67.079 54.9692C67.2553 54.9002 67.3767 54.7709 67.4511 54.5809C67.5229 54.3934 67.5588 54.0932 67.5588 53.6772V47.8752L64.4824 55.5094H64.2178L61.2681 47.9715V53.6772C61.2681 54.0934 61.304 54.3934 61.3785 54.5809C61.45 54.7709 61.5741 54.9004 61.7479 54.9692C61.9241 55.0381 62.211 55.0821 62.6078 55.0987V55.4294C62.2109 55.3964 61.7092 55.3798 61.1082 55.3798C60.4382 55.3798 59.9256 55.3964 59.5644 55.4294V55.0987C59.865 55.0878 60.0966 55.0659 60.2535 55.0299C60.4136 54.994 60.5457 54.9223 60.6561 54.8151C60.7636 54.7075 60.8297 54.57 60.8602 54.3989C60.8905 54.2309 60.9042 53.9912 60.9042 53.677V48.6654C60.9042 48.3543 60.8905 48.1117 60.8602 47.9435C60.8299 47.7728 60.7636 47.6351 60.6561 47.5275C60.5457 47.4199 60.4136 47.3484 60.2535 47.3127C60.0964 47.2796 59.865 47.2548 59.5644 47.2437V46.9132C59.9256 46.946 60.4382 46.9626 61.1082 46.9626C61.5851 46.9626 62.0123 46.946 62.3817 46.9132L64.9042 53.6053L67.559 46.9626H68.3363C69.1689 46.9626 69.8525 46.946 70.3874 46.9132H70.3872ZM78.1721 53.3131L78.503 53.4426C78.3046 54.0516 77.9323 54.5723 77.3867 55.0102C76.8381 55.4454 76.182 55.6632 75.41 55.6632C74.2329 55.6632 73.3039 55.2692 72.6258 54.484C71.9447 53.6988 71.6058 52.6631 71.6058 51.3763C71.6058 49.9299 71.9447 48.7865 72.6203 47.9463C73.2957 47.106 74.2053 46.6872 75.3467 46.6872C76.3364 46.6872 77.0999 46.9876 77.6349 47.5883C78.1723 48.1889 78.4397 49.0979 78.4397 50.3184H73.2709C73.2322 50.6161 73.2131 50.9688 73.2131 51.3765C73.2131 52.4591 73.4667 53.3271 73.9739 53.9856C74.4783 54.6413 75.0682 54.9692 75.7411 54.9692C76.8519 54.9692 77.6624 54.4182 78.1723 53.3135L78.1721 53.3131ZM73.2459 50.0044H76.849C76.8793 49.1502 76.7607 48.4338 76.4851 47.8609C76.2095 47.2878 75.8097 47.0013 75.2806 47.0013C74.7596 47.0013 74.3103 47.2548 73.9379 47.7562C73.5631 48.2604 73.3315 49.0098 73.2461 50.0044H73.2459ZM80.6671 49.7233L80.6753 49.7399C81.1825 47.9242 82.3375 47.0179 84.1404 47.0179C84.6476 47.0179 85.1026 47.0951 85.5106 47.2439C85.9158 47.3955 86.2551 47.5967 86.5277 47.8502C86.7978 48.1037 87.0239 48.4066 87.2061 48.7621C87.3853 49.1174 87.5174 49.4922 87.5975 49.8835C87.6775 50.2776 87.7189 50.6934 87.7189 51.1343C87.7189 52.4925 87.3577 53.5863 86.6327 54.4155C85.9076 55.2475 84.9566 55.6636 83.7767 55.6636C81.4309 55.6636 80.2565 53.8674 80.2565 50.2719C80.2565 49.9495 80.2674 49.6106 80.2895 49.2553C80.3087 48.8998 80.361 48.4148 80.4382 47.8006C80.5154 47.1888 80.656 46.6048 80.8573 46.0511C81.0586 45.4974 81.312 45.051 81.6126 44.7176C82.0813 44.1969 82.7428 43.8662 83.6002 43.7258C83.7986 43.6928 84.022 43.6651 84.2673 43.6459C84.5098 43.6238 84.7689 43.6045 85.042 43.5936C85.3121 43.5797 85.4803 43.569 85.5464 43.5635C86.139 43.5221 86.5773 43.4147 86.8613 43.2467C87.148 43.076 87.3824 42.8058 87.5643 42.434L87.8153 42.5002C87.5422 43.3596 87.2309 43.9274 86.8863 44.2028C86.4949 44.5253 85.9214 44.7069 85.1661 44.751C84.4824 44.7839 83.92 44.8364 83.4789 44.9135C82.8642 45.021 82.3762 45.236 82.0123 45.5581C81.6486 45.8806 81.3617 46.3681 81.1524 47.0183C80.9428 47.6713 80.7801 48.5723 80.6671 49.7239V49.7233ZM84.0607 55.3325C84.3886 55.3325 84.6781 55.2362 84.9318 55.0462C85.1854 54.8532 85.3838 54.6163 85.53 54.3272C85.676 54.0406 85.7946 53.6961 85.8855 53.2994C85.9766 52.9 86.0372 52.5252 86.0674 52.1726C86.0977 51.8199 86.1116 51.4564 86.1116 51.0788C86.1116 49.7922 85.9324 48.8528 85.5712 48.2576C85.2102 47.6625 84.7113 47.365 84.0773 47.365C83.774 47.365 83.4982 47.431 83.2447 47.5605C82.991 47.6871 82.7567 47.8965 82.539 48.1803C82.3185 48.4668 82.1475 48.8717 82.0207 49.3954C81.8941 49.9188 81.8305 50.5442 81.8305 51.2632C81.8305 51.974 81.894 52.5996 82.018 53.1396C82.1421 53.6822 82.3101 54.1067 82.5251 54.4151C82.7401 54.7264 82.9772 54.9551 83.2363 55.1065C83.4955 55.2553 83.7685 55.3325 84.0607 55.3325ZM95.8179 53.3131L96.1488 53.4426C95.9504 54.0516 95.5781 54.5723 95.0324 55.0102C94.4838 55.4454 93.8277 55.6632 93.0557 55.6632C91.8786 55.6632 90.9497 55.2692 90.2715 54.484C89.5904 53.6988 89.2515 52.6631 89.2515 51.3763C89.2515 49.9299 89.5904 48.7865 90.2661 47.9463C90.9415 47.106 91.8511 46.6872 92.9924 46.6872C93.9821 46.6872 94.7457 46.9876 95.2806 47.5883C95.8181 48.1889 96.0854 49.0979 96.0854 50.3184H90.9167C90.878 50.6161 90.8588 50.9688 90.8588 51.3765C90.8588 52.4591 91.1125 53.3271 91.6197 53.9856C92.1241 54.6413 92.7139 54.9692 93.3868 54.9692C94.4977 54.9692 95.3082 54.4182 95.8181 53.3135L95.8179 53.3131ZM90.8916 50.0044H94.4947C94.525 49.1502 94.4064 48.4338 94.1308 47.8609C93.8553 47.2878 93.4554 47.0013 92.9264 47.0013C92.4053 47.0013 91.956 47.2548 91.5837 47.7562C91.2088 48.2604 90.9773 49.0098 90.8918 50.0044H90.8916ZM105.695 46.9296V47.2769C105.232 47.2769 104.907 47.3625 104.72 47.5304C104.529 47.7011 104.436 48.0154 104.436 48.4727V53.8945C104.436 54.3465 104.529 54.6577 104.72 54.8288C104.907 54.9967 105.232 55.0821 105.695 55.0821V55.4294C104.684 55.3852 104.011 55.3659 103.677 55.3659C103.402 55.3659 102.63 55.3852 101.359 55.4294V55.0821C101.891 55.0821 102.291 54.9967 102.553 54.8233C102.817 54.6524 102.95 54.3412 102.95 53.8947V48.4729C102.95 48.0156 102.87 47.7013 102.707 47.5306C102.547 47.3627 102.261 47.2771 101.853 47.2771H101.707C101.437 47.2771 101.257 47.357 101.166 47.514C101.072 47.6738 101.006 47.9933 100.962 48.4729C100.882 49.36 100.816 50.046 100.761 50.5307C100.709 51.0128 100.615 51.5833 100.482 52.2417C100.35 52.8976 100.19 53.4596 100.003 53.9279C99.5287 55.085 98.9056 55.6637 98.1366 55.6637C97.8139 55.6637 97.5383 55.5755 97.3122 55.402C97.0861 55.2258 96.9733 54.9833 96.9733 54.6719C96.9733 54.402 97.056 54.1869 97.2186 54.0301C97.3839 53.8703 97.6016 53.7904 97.8692 53.7904C98.1117 53.7904 98.3103 53.8594 98.4645 53.9971C98.6162 54.1348 98.6934 54.3332 98.6934 54.5895C98.6934 54.9723 98.4866 55.2424 98.0705 55.3966C98.0926 55.4075 98.1477 55.4132 98.2331 55.4132C98.4205 55.4132 98.5999 55.3608 98.7707 55.2561C98.9388 55.1514 99.0878 55.011 99.2119 54.8317C99.3332 54.6555 99.438 54.4873 99.5179 54.3332C99.5978 54.176 99.6723 54.0108 99.7356 53.8401C100.177 52.6994 100.486 50.9087 100.665 48.4731C100.665 48.451 100.665 48.4234 100.667 48.3875C100.67 48.3518 100.673 48.327 100.673 48.3105C100.673 47.9275 100.565 47.6601 100.353 47.5088C100.141 47.3545 99.8072 47.2773 99.3551 47.2773V46.93C99.9092 46.9796 100.287 47.0017 100.485 47.0017H101.891H103.694C103.887 47.0017 104.554 46.9796 105.696 46.93L105.695 46.9296ZM109.362 50.4727H111.002C112.143 50.4727 112.984 50.6849 113.522 51.1118C114.059 51.5361 114.329 52.1091 114.329 52.831C114.329 53.1533 114.266 53.4619 114.137 53.7594C114.007 54.0541 113.808 54.3297 113.541 54.586C113.276 54.842 112.902 55.0462 112.425 55.1975C111.945 55.3518 111.388 55.429 110.751 55.429C110.564 55.429 110.222 55.418 109.731 55.396C109.238 55.3739 108.852 55.3657 108.571 55.3657C108.281 55.3657 107.628 55.385 106.616 55.4292V55.0819C107.079 55.0819 107.405 54.9965 107.595 54.8286C107.782 54.6577 107.876 54.3465 107.876 53.8944V48.4725C107.876 48.0152 107.796 47.701 107.633 47.5302C107.474 47.3623 107.19 47.2767 106.787 47.2767V46.9294C107.832 46.9791 108.447 47.0011 108.637 47.0011C108.824 47.0011 109.486 46.9791 110.622 46.9294V47.2767C110.158 47.2767 109.833 47.3623 109.646 47.5302C109.456 47.701 109.362 48.0152 109.362 48.4725V50.4727H109.362ZM109.362 50.7483V53.8944C109.362 54.3381 109.453 54.6438 109.632 54.8202C109.814 54.9936 110.128 55.0817 110.575 55.0817C110.999 55.0817 111.36 55.0268 111.661 54.911C111.959 54.7981 112.187 54.6381 112.342 54.4289C112.499 54.2196 112.609 53.9938 112.672 53.7539C112.739 53.5143 112.772 53.2414 112.772 52.9355C112.772 52.1642 112.557 51.6077 112.129 51.2632C111.699 50.9188 110.999 50.7481 110.023 50.7481H109.362V50.7483Z" fill="white"/>
<path d="M10.5915 38.4922H10.5917L10.5864 38.4756C11.5274 38.1621 12.2324 38.2735 12.7473 38.5733C13.2639 38.8739 13.5823 39.361 13.7564 39.8005C13.7732 39.8429 13.7912 39.8927 13.8097 39.9489C13.8881 40.1837 13.9338 40.4073 13.951 40.6193C14.0069 41.3101 13.8682 41.9572 13.4611 42.4135C12.8882 43.0551 11.8942 43.3692 11.0511 43.4969C12.9684 44.979 12.9752 46.2843 12.9432 47.7463C12.9252 48.5727 11.8047 50.6737 13.5959 50.7374L14.6431 50.7529C15.6254 50.7675 15.8556 50.2978 15.8646 49.6897C15.8689 49.4106 15.8294 49.0911 15.7903 48.7729C15.7514 48.4575 15.7131 48.1432 15.7155 47.8449C15.7084 47.7623 15.7616 47.684 15.8446 47.6617C15.9379 47.6367 16.0338 47.6922 16.0588 47.7854C16.3008 48.2276 17.3077 49.1206 17.6675 49.3919C19.7251 50.9429 22.1868 50.8226 24.929 50.7784C32.325 50.6583 32.6101 48.6766 32.7798 47.4984C32.8011 47.3492 32.821 47.2117 32.8531 47.0836C32.8673 46.9969 32.9451 46.9328 33.0352 46.9379C33.1316 46.9429 33.2056 47.0254 33.2006 47.1219H33.2C33.1947 47.2217 33.1884 47.316 33.1818 47.4182C33.1619 47.724 33.1376 48.0985 33.1347 48.475C33.1263 49.5458 33.2785 50.737 34.1693 50.7439L35.5095 50.7544C37.3257 50.6413 36.386 47.6475 35.6983 45.8314C35.1049 44.2655 36.1294 43.2444 37.4701 41.1808C35.6437 40.9013 34.3011 39.5118 34.8737 37.5908C34.99 37.2006 35.202 36.8377 35.4798 36.5297C36.1253 35.8138 37.132 35.3908 38.1264 35.6044C38.2102 35.6144 38.2769 35.6839 38.2804 35.7712C36.9219 36.0031 36.0284 36.9492 36.4185 38.4795C36.6559 39.4124 37.4525 39.9175 38.6848 39.4931C39.7184 39.137 40.8145 37.2979 39.9817 35.2587C39.2934 33.5731 36.6215 33.2344 34.7703 34.3075C32.1868 35.8054 32.7411 39.5718 30.7412 41.1017C29.3319 42.1795 27.1902 42.1391 26.3074 42.1447C23.9753 42.1562 22.3273 41.9129 20.0282 42.5117C19.97 42.532 19.9027 42.5207 19.8539 42.4768C19.7819 42.4125 19.7759 42.3018 19.8404 42.2299L19.841 42.2303C20.4048 40.8205 23.8209 40.0214 25.341 40.0347C27.1078 40.0499 28.999 39.4712 29.3123 38.3969C29.7636 36.8502 28.4749 31.1047 30.8989 26.264C31.9914 23.0336 34.8059 20.8656 33.549 19.4857C33.1001 18.9929 32.6053 19.2671 31.4764 19.8115C26.6583 22.1342 25.7995 22.4049 20.09 21.3435C16.2273 20.6254 13.6276 18.304 11.4047 18.7028C10.8574 18.8011 10.3763 19.0915 10.0335 19.5017C9.69693 19.9044 9.49446 20.4236 9.49446 20.99C9.49446 21.1543 9.51107 21.3129 9.54254 21.4643C9.574 21.616 9.62071 21.7633 9.68071 21.9035C9.68501 21.9113 9.68853 21.9195 9.69166 21.9281C9.69635 21.9373 9.70026 21.9469 9.70338 21.9568L9.69889 21.9584V21.9588L9.70299 21.9576C9.98951 22.8801 13.3315 26.9193 13.9305 28.0038C16.9991 32.6588 17.5842 37.4854 17.2696 37.3834C16.4914 36.7988 8.58724 34.6683 7.29382 37.5533C6.68386 38.9139 7.16816 39.7329 7.64659 40.4984C8.42111 41.7371 10.1806 42.3861 11.4256 42.2746C12.4028 42.1871 12.8167 41.4136 12.9137 40.8249C13.1204 39.57 11.7213 38.1438 10.1089 38.8852C10.0733 38.7956 10.2485 38.6014 10.3384 38.5659L10.4027 38.7284L10.3384 38.5659C10.4136 38.5362 10.492 38.5077 10.5731 38.4803C10.5776 38.4784 10.5819 38.4766 10.5864 38.4752L10.5922 38.4924L10.5915 38.4922ZM6.14953 41.065C5.80478 40.2835 5.70276 39.3384 5.70276 38.8462C5.70276 38.6178 5.72211 38.3924 5.75905 38.1717C5.79618 37.9502 5.85188 37.7332 5.92458 37.5227L5.92614 37.518L5.92888 37.5086C5.95429 37.4277 5.9838 37.3477 6.01741 37.2686C6.05279 37.1852 6.095 37.0922 6.13995 37.0139C6.03403 36.9533 6.99168 35.8775 7.08842 35.7927C7.47304 35.4556 7.92216 35.1896 8.41505 35.0159C9.06137 34.7306 9.99381 34.6739 10.9642 34.7396C12.1774 34.8218 13.4591 35.0946 14.3024 35.3458C14.2938 34.0704 14.0611 32.768 13.7253 31.556C13.2375 29.7956 12.5322 28.2268 11.9775 27.2031C11.9384 27.1313 11.8661 27 11.7719 26.8299C11.1758 25.7507 9.70397 23.0864 9.38052 22.0963L9.37602 22.0887L9.37583 22.0889C9.36997 22.0781 9.36528 22.0674 9.36176 22.0563C9.35883 22.0479 9.35668 22.0391 9.35492 22.0303C9.28788 21.8721 9.2355 21.7059 9.19993 21.5332C9.16319 21.3558 9.14384 21.1738 9.14384 20.9892C9.14384 20.3382 9.377 19.7409 9.76495 19.2771C10.1584 18.8061 10.712 18.4725 11.3425 18.3591C12.5138 18.1489 14.0067 18.5991 15.3187 18.995C15.7659 19.1298 16.1917 19.2583 16.5635 19.3487C17.6016 19.6017 18.7964 19.755 19.9737 19.8376C21.4674 19.9427 22.9303 19.9343 24.012 19.8716C25.2046 19.8027 26.3108 19.5691 27.3501 19.2546C28.3977 18.9376 29.3725 18.5411 30.3004 18.1477C30.373 18.1171 30.5592 18.0366 30.766 17.9473C32.0811 17.3799 34.0542 16.5283 35.291 16.5283C35.8468 16.5283 36.3643 16.6949 36.7962 16.9809C37.2375 17.2733 37.5889 17.6913 37.7998 18.1839L37.8047 18.1936L37.8051 18.1944C38.0336 18.6522 38.1239 19.1772 38.0539 19.722C37.9882 20.2347 37.7803 20.7642 37.4117 21.2701C36.7876 22.1262 35.7385 23.5682 34.7588 25.5246C33.7806 27.4781 32.8703 29.9468 32.5195 32.8623C32.5044 32.9871 32.4919 33.0944 32.4794 33.2012C32.3379 34.4114 32.4683 36.5875 31.9101 38.1678C31.5997 39.0466 31.1375 39.7513 30.568 40.3228C30.5111 40.38 29.4571 40.9964 30.3743 40.2529C31.1985 39.6224 31.8507 38.6647 31.9945 37.2176C32.1376 35.7773 32.9291 34.6194 34.0208 33.7942C35.2634 32.8551 36.8983 32.3473 38.4031 32.3473C38.9891 32.3473 39.547 32.4719 40.0519 32.6961L40.052 32.6955C40.0577 32.6981 40.0632 32.7008 40.0685 32.7037C40.584 32.9356 41.0423 33.2715 41.4162 33.6846L41.4164 33.6844L41.4197 33.6874L41.4256 33.6942C41.4649 33.7362 41.5018 33.7776 41.5358 33.8186C41.5704 33.8606 41.6064 33.9073 41.6437 33.9589L41.6441 33.9587L41.6462 33.9618H41.6464L41.6498 33.9665C41.9093 34.3106 42.1157 34.698 42.256 35.1161C42.3926 35.5232 42.4667 35.9576 42.4667 36.4084C42.4667 38.1832 41.603 39.8226 40.3069 40.4714C40.1457 40.5521 39.1667 41.0818 37.8483 41.13C37.2848 43.0073 37.5581 43.729 38.1383 45.2605C38.3627 45.8531 38.6322 46.564 38.9197 47.5107C39.0092 47.8061 39.0561 48.1328 39.0536 48.4643C39.0494 48.986 38.9236 49.5229 38.6502 49.9749C38.3728 50.4339 37.9456 50.8058 37.3425 50.9884C37.0781 51.0687 36.78 51.1119 36.4472 51.1093L34.1662 51.0915C32.9205 51.082 32.4501 51.0478 32.0119 50.9128C31.219 50.6685 31.1434 50.2526 31.0969 50.179C29.9182 50.6974 28.0199 51.0759 24.9343 51.1259C23.576 51.1478 16.7548 51.062 16.1368 50.1087C16.1216 51.0441 15.0953 51.0859 14.639 51.1003L13.0362 51.0765C11.3677 51.0517 10.7273 49.7618 10.7466 48.4614C10.7535 47.9875 10.7838 47.5053 10.8168 47.0324C10.964 44.9089 10.9073 43.625 10.6767 43.5934C8.9957 43.3631 6.90119 42.7688 6.14953 41.0642V41.065ZM9.53511 22.0084L9.60645 21.9865H9.60547L9.53511 22.0084ZM9.62325 21.9815H9.62365H9.62228L9.62189 21.9817L9.62325 21.9815ZM9.64006 21.9764L9.64202 21.9758L9.64045 21.976L9.63869 21.9766L9.64006 21.9764ZM9.53472 22.0016L9.55466 21.9906L9.53472 22.0016ZM9.55739 21.9891H9.5572H9.55739ZM9.57127 21.9815L9.57166 21.9813H9.57146L9.57088 21.9815H9.57127Z" fill="white"/>
<path d="M118.935 33.1655V17.8651H116.325V17.6926C118.004 17.0819 121.133 15.6541 123.031 13.7358H123.204V20.1234H127.924V22.0426H123.204V32.9575C123.204 33.9438 123.459 34.7341 123.971 35.3283C124.482 35.9283 125.225 36.2254 126.2 36.2254C127.151 36.2254 127.99 35.9994 128.709 35.548L128.846 35.738C127.336 37.6455 125.623 38.5901 123.709 38.5782C122.27 38.5782 121.108 38.1534 120.225 37.2889C119.354 36.4361 118.923 35.0548 118.935 33.1653V33.1655Z" fill="white"/>
<path d="M108.623 37.8295C109.521 37.8295 110.288 37.5682 110.93 37.0451C111.578 36.5224 111.899 35.8271 111.899 34.9536C111.899 34.122 111.584 33.4266 110.96 32.8682C110.306 32.2979 109.533 31.8164 108.623 31.4244C107.868 31.0859 106.965 30.6461 105.906 30.0995C104.908 29.5886 104.117 28.8876 103.528 28.002C102.946 27.1168 102.642 26.1244 102.631 25.0371C102.631 23.9437 102.934 22.9811 103.54 22.1553C104.141 21.3236 104.908 20.7056 105.835 20.3015C106.769 19.8914 107.767 19.6894 108.832 19.6894C110.508 19.6894 113.704 20.0222 115.387 20.6818L113.867 25.1736H113.731C111.906 22.1315 110.169 20.6105 108.523 20.6105C107.732 20.6105 107.054 20.8541 106.483 21.3354C105.912 21.8168 105.627 22.4465 105.627 23.2249C105.627 24.538 106.751 25.6609 108.992 26.5996C109.759 26.9383 110.681 27.378 111.763 27.9247C112.779 28.4473 113.594 29.1604 114.2 30.0636C114.801 30.9726 115.11 31.9828 115.122 33.094C115.122 34.0327 114.925 34.8706 114.539 35.6013C114.147 36.3322 113.623 36.9203 112.963 37.3658C112.298 37.8116 111.566 38.1502 110.758 38.3758C109.949 38.6018 109.099 38.7288 108.207 38.7325C106.186 38.7405 101.143 38.0288 99.4245 37.167C100.517 36.1756 101.73 34.7181 102.494 32.3807H102.666C104.688 36.0111 106.674 37.8291 108.624 37.8291L108.623 37.8295Z" fill="white"/>
<path d="M91.1893 38.7329C88.6924 38.7093 86.6471 37.8714 85.0418 36.2076C83.4425 34.5379 82.6398 32.3098 82.6398 29.5232C82.6398 26.7424 83.508 24.4074 85.2499 22.53C86.9919 20.6582 88.9717 19.7137 91.1891 19.6896C93.4069 19.6896 95.1547 20.2779 96.4329 21.4485C97.6992 22.6071 98.3295 24.5084 98.3295 27.1405V28.323H87.1343C87.1343 30.7293 87.7228 32.589 88.9058 33.914C90.095 35.2332 91.5933 35.8867 93.4005 35.8629C95.202 35.8629 96.8547 35.2568 98.365 34.0507L98.573 34.1933C97.9368 35.2805 96.9796 36.3145 95.7014 37.2889C94.4232 38.2753 92.9189 38.7566 91.1889 38.7327L91.1893 38.7329ZM91.0883 20.6465C90.5176 20.6465 90.0063 20.8188 89.5423 21.1633C89.0846 21.5018 88.716 21.9239 88.4365 22.4229C88.1631 22.922 87.9194 23.5042 87.7232 24.1638C87.527 24.8234 87.3904 25.4234 87.3069 25.9582C87.2239 26.493 87.1703 27.0218 87.1345 27.5388L94.4115 27.0692C94.4115 22.7911 93.3057 20.6463 91.0883 20.6463V20.6465Z" fill="white"/>
<path d="M87.0337 40.5607L83.5776 40.9009C77.9673 41.4529 75.1899 38.527 72.5388 34.9421C70.6419 32.3772 69.3664 29.5363 66.8482 27.2477H65.6897V33.4093C65.6897 34.8708 65.8798 35.9463 66.2486 36.6297C66.6289 37.2893 67.4021 37.8002 68.5673 38.1627V38.2993H58.2343V38.1627C59.4233 37.7883 60.2021 37.2774 60.5885 36.6297C60.969 35.9523 61.1594 34.8827 61.1475 33.4093V18.5431C61.1475 17.1051 60.9571 16.0475 60.5885 15.376C60.2021 14.7224 59.4233 14.2115 58.2343 13.8431V13.7005H69.0367C75.119 13.7005 78.1627 15.8453 78.1627 20.1234C78.1627 21.7871 77.5242 23.1329 76.2482 24.1816C74.9794 25.2244 72.6778 26.3039 70.9239 26.7553C74.7512 28.4473 76.6051 32.5891 78.8315 35.1093C81.0578 37.6289 83.12 39.1763 86.8068 40.013L87.0333 40.5605L87.0337 40.5607ZM65.6899 14.9185V26.1482H67.105C69.1026 26.1482 70.678 25.6611 71.8315 24.6867C72.985 23.712 73.5615 22.2743 73.5615 20.367C73.5615 18.8816 73.1335 17.6042 72.2656 16.5287C71.4033 15.4592 70.2442 14.9183 68.7934 14.9183H65.6899V14.9185Z" fill="white"/>
<path d="M140.48 27.7124V25.5295C140.492 24.0503 140.116 22.8454 139.346 21.909C138.576 20.9785 137.562 20.5072 136.302 20.4955C135.031 20.4955 133.969 20.8176 133.103 21.4557C133.724 21.575 134.231 21.8315 134.643 22.2372C135.049 22.6368 135.252 23.1317 135.252 23.7282C135.252 24.3247 135.043 24.8138 134.625 25.2076C134.208 25.5951 133.7 25.7922 133.103 25.7922C132.507 25.7922 131.994 25.5834 131.564 25.1718C131.134 24.7542 130.919 24.2593 130.919 23.6747C130.919 22.5354 131.737 21.5096 133.366 20.6029C134.983 19.6904 136.756 19.2372 138.684 19.2372C140.593 19.2372 142.085 19.7144 143.166 20.6685C144.246 21.6289 144.783 23.0485 144.783 24.9334V33.4089C144.783 34.6435 145.01 35.4965 145.463 35.9678C145.923 36.4389 146.764 36.7252 148 36.8147V36.9578C147.439 37.2979 146.705 37.5901 145.791 37.8407C144.872 38.0911 144.096 38.2165 143.452 38.2165C142.64 38.2165 141.972 38.0256 141.453 37.6499C140.933 37.2682 140.623 36.6899 140.515 35.9082C138.665 37.5188 136.839 38.33 135.043 38.3538C133.718 38.3538 132.608 37.96 131.712 37.1668C130.823 36.3734 130.382 35.3238 130.394 34.0235C130.394 32.4727 131.217 31.1129 132.859 29.95C134.482 28.7987 137.018 28.0532 140.48 27.7131L140.48 27.7124ZM139.417 28.6905C138.158 28.6905 137.06 29.0423 136.117 29.7402C135.18 30.4381 134.715 31.3924 134.715 32.6032C134.732 33.8081 135.079 34.6788 135.741 35.2277C136.433 35.8062 137.221 36.0984 138.122 36.0984C139.018 36.0984 139.805 35.8957 140.48 35.49V28.7978C140.11 28.7261 139.752 28.6903 139.417 28.6903L139.417 28.6905Z" fill="white"/>
</g>
<defs>
<clipPath id="clip0_63_1337">
<rect width="148" height="62" fill="white"/>
</clipPath>
</defs>
</svg>
