<svg width="60" height="74" viewBox="0 0 60 74" fill="none" xmlns="http://www.w3.org/2000/svg">
<g clip-path="url(#clip0_823_1818)">
<path d="M29.4507 0.000114692C34.7535 0.000114692 39.2633 2.08809 42.4728 5.55765C45.6126 8.95175 47.4983 13.6656 47.6519 19.0321H47.6671V26.7241C47.6671 32.4814 45.7745 37.3764 42.5695 40.8465C39.3296 44.3543 34.7587 46.3969 29.4522 46.3969C24.1315 46.3969 19.6087 44.2946 16.3963 40.8034C13.1369 37.2612 11.2374 32.2937 11.2374 26.6521V25.9484H11.2358V19.6726C11.2358 13.9154 13.1284 9.02033 16.3334 5.55031C19.5733 2.04244 24.1443 0 29.4507 0V0.000114692ZM29.4507 1.22147C18.8975 1.22147 13.2261 9.53679 13.2261 19.7005L13.2277 26.68C13.2277 36.7428 18.9905 45.1758 29.4522 45.1758C40.0054 45.1758 45.6758 36.8198 45.6758 26.6562L45.6756 19.5771C45.6337 9.55056 39.8669 1.22147 29.4507 1.22147Z" fill="#5A082D"/>
<path fill-rule="evenodd" clip-rule="evenodd" d="M18.9824 28.8702C20.7848 28.2818 21.7717 30.0764 20.9768 31.1723C20.2118 32.2268 18.4094 32.228 17.3133 31.7188C16.3169 31.2559 15.613 30.0495 15.613 28.9586C15.613 28.6254 15.669 28.3054 15.7716 28.0075C15.8086 27.886 15.8595 27.7664 15.9224 27.6495C16.2582 26.9819 16.8426 26.4622 17.5534 26.2127C18.6518 25.7237 20.9686 26.1748 22.0161 26.516C22.0528 24.0945 20.9914 21.5216 20.2701 20.184C20.0322 19.7426 18.588 17.1706 18.337 16.3583C18.3323 16.3589 18.3298 16.3525 18.3294 16.3406C18.2306 16.1124 18.1757 15.8607 18.1757 15.5959C18.1757 14.6771 18.8358 13.913 19.7058 13.756C20.8368 13.5522 22.4294 14.2233 23.5406 14.4951C25.3113 14.9284 27.6746 14.9743 29.1255 14.89C30.9273 14.7853 32.4591 14.1829 33.852 13.5896C34.7857 13.1918 36.5087 12.3884 37.5183 12.3884C38.3059 12.3884 38.9817 12.8693 39.2702 13.5546C39.5846 14.1799 39.5307 14.9877 38.9928 15.7292C38.0585 17.0171 35.8514 20.0687 35.3249 24.4655C35.1669 25.7847 34.9152 28.5481 33.686 29.7873C32.912 30.5675 32.2363 30.7583 30.0835 30.7394C28.717 30.7275 26.68 30.9369 26.1081 31.5776C28.242 31.018 29.5261 31.051 30.913 31.0424C31.9576 31.0357 34.9038 30.6725 35.1924 27.7529C35.4129 25.5235 37.7886 24.2264 39.836 24.2264C40.6889 24.2264 41.4558 24.5967 41.9858 25.1862C42.0429 25.2467 42.0962 25.3113 42.1457 25.3802C42.5135 25.8679 42.732 26.4756 42.732 27.1346C42.732 30.3256 37.9836 31.2723 37.6959 28.5021C37.607 27.6469 38.0884 26.7223 39.6138 26.6621C37.6665 26.2277 35.6261 29.3469 39.3 30.6241C38.7014 32.6226 39.322 32.9178 40.0965 35.4806C40.4009 36.4881 40.0032 38.0182 38.3804 38.0056L36.6816 37.9923C35.5562 37.9834 35.7875 35.9537 35.8309 35.1443C35.6178 35.9715 36.1116 37.9151 29.8033 38.0179C27.4104 38.0571 23.7171 38.1144 23.0694 35.6818C23.0567 36.6345 23.6714 38.0218 22.1395 37.999L20.9459 37.9812C19.59 37.9608 19.6608 36.6645 19.7109 35.6125C19.7666 34.4413 19.9879 33.316 19.2331 32.3346C20.4704 32.234 21.9024 31.3472 21.3972 29.8247C21.18 29.1701 20.5018 28.2666 18.9825 28.8701L18.9824 28.8702Z" fill="#F2B97F"/>
<path d="M19.1234 28.6937H19.1236L19.1196 28.6812C19.8204 28.4469 20.3454 28.5299 20.7289 28.7542C21.1136 28.9792 21.3508 29.3438 21.4804 29.6726C21.4929 29.7044 21.5062 29.7416 21.5202 29.7838C21.5784 29.9594 21.6126 30.1268 21.6254 30.2854C21.6671 30.8023 21.5635 31.2867 21.2604 31.628C20.8339 32.1081 20.0936 32.3431 19.4656 32.4387C20.8935 33.5478 20.8984 34.5247 20.8748 35.6186C20.8613 36.237 20.0269 37.8092 21.3609 37.857L22.1408 37.8687C22.8724 37.8796 23.0438 37.528 23.0505 37.0731C23.0536 36.8643 23.0243 36.625 22.9952 36.3869C22.9663 36.1509 22.9375 35.9158 22.9394 35.6926C22.9342 35.6306 22.9736 35.572 23.0355 35.5554C23.1051 35.5367 23.1766 35.5781 23.1951 35.6481C23.3752 35.979 24.1251 36.6473 24.393 36.8502C25.9254 38.0108 27.7588 37.921 29.801 37.8877C35.3089 37.7977 35.5215 36.3148 35.6476 35.4331C35.6636 35.3215 35.6784 35.2187 35.7022 35.1228C35.7129 35.0579 35.7707 35.01 35.8377 35.0137C35.9097 35.0175 35.9647 35.0792 35.9609 35.1515H35.9604C35.9565 35.2261 35.9518 35.2968 35.9469 35.3731C35.9322 35.6021 35.914 35.8823 35.9118 36.1642C35.9056 36.9653 36.0191 37.8568 36.6823 37.862L37.6803 37.8699C39.0329 37.7851 38.3331 35.5447 37.8209 34.1857C37.379 33.0139 38.1419 32.2497 39.1405 30.7054C37.7803 30.4963 36.7804 29.4564 37.2069 28.019C37.2935 27.7268 37.4513 27.4554 37.6583 27.2248C38.1391 26.6892 38.8886 26.3725 39.6292 26.5324C39.6917 26.5399 39.7413 26.592 39.7439 26.6571C38.7323 26.8305 38.0668 27.5387 38.3571 28.6839C38.5341 29.3818 39.1272 29.7599 40.045 29.4423C40.8148 29.1759 41.631 27.7995 41.0109 26.2737C40.4983 25.0123 38.5084 24.7587 37.1299 25.5618C35.2058 26.6828 35.6187 29.5014 34.1293 30.6462C33.0798 31.4528 31.4847 31.4225 30.8273 31.4266C29.0906 31.4353 27.8632 31.2533 26.1509 31.7013C26.1076 31.7164 26.0575 31.7082 26.021 31.6751C25.9674 31.627 25.963 31.5441 26.0109 31.4904L26.0114 31.4907C26.4315 30.4356 28.9755 29.8377 30.1075 29.8476C31.4234 29.8592 32.8318 29.426 33.0652 28.622C33.4012 27.4645 32.4415 23.1648 34.2466 19.5426C35.0602 17.1252 37.1563 15.5027 36.2202 14.47C35.8859 14.1013 35.5175 14.3066 34.6768 14.7137C31.0884 16.4519 30.4488 16.6544 26.1968 15.8601C23.3201 15.3227 21.384 13.5856 19.7286 13.8841C19.3212 13.9577 18.9627 14.175 18.7074 14.482C18.4567 14.7833 18.3058 15.1717 18.3058 15.5957C18.3058 15.7185 18.3182 15.8374 18.3416 15.9504C18.365 16.0642 18.3997 16.1742 18.4445 16.2793C18.4476 16.2851 18.4503 16.2913 18.4524 16.2976C18.4559 16.3045 18.4589 16.3116 18.4612 16.3192L18.458 16.3202L18.4581 16.3205L18.4609 16.3196C18.6743 17.01 21.1632 20.0328 21.6094 20.8443C23.8946 24.3277 24.3302 27.9396 24.0961 27.8634C23.5166 27.426 17.6301 25.8317 16.6667 27.9906C16.2125 29.0089 16.5731 29.6218 16.9294 30.1947C17.5063 31.1216 18.8166 31.6072 19.7438 31.5238C20.4715 31.4584 20.78 30.8794 20.8522 30.439C21.0059 29.4997 19.9642 28.4325 18.7634 28.9873C18.7368 28.9201 18.8673 28.7748 18.9342 28.7483L18.9821 28.87L18.9343 28.7483C18.9903 28.726 19.0487 28.7047 19.1091 28.6844C19.1123 28.6829 19.1156 28.6818 19.119 28.6806L19.1232 28.6935L19.1234 28.6937ZM15.8152 30.619C15.5585 30.0342 15.4827 29.327 15.4827 28.9586C15.4827 28.7879 15.4971 28.6193 15.5246 28.454C15.5522 28.2881 15.5938 28.1257 15.6478 27.9683L15.6488 27.9648L15.6511 27.9578C15.6699 27.8973 15.692 27.8373 15.7169 27.7781C15.7433 27.7157 15.7747 27.6462 15.8082 27.5876C15.7294 27.5423 16.4426 26.7373 16.5146 26.6738C16.8011 26.4214 17.1356 26.2224 17.5026 26.0925C17.9839 25.8789 18.6784 25.8366 19.4011 25.8857C20.3048 25.947 21.2591 26.1513 21.8871 26.3393C21.8806 25.3848 21.7075 24.4104 21.4574 23.5032C21.0942 22.1859 20.5687 21.0118 20.1557 20.2458C20.1267 20.192 20.0727 20.0937 20.0026 19.9664C19.5586 19.1588 18.4624 17.165 18.2217 16.4241L18.2185 16.4185L18.2182 16.4186C18.2139 16.4107 18.2105 16.4024 18.2078 16.3943C18.2057 16.3879 18.2041 16.3815 18.2028 16.3749C18.1529 16.2566 18.114 16.1321 18.0874 16.0029C18.0598 15.8702 18.0454 15.7341 18.0454 15.5959C18.0454 15.1087 18.2193 14.6618 18.508 14.3146C18.8011 13.9621 19.2134 13.7124 19.6829 13.6277C20.5551 13.4704 21.6669 13.8073 22.6441 14.1035C22.9771 14.2044 23.2943 14.3006 23.5712 14.3683C24.3443 14.5574 25.234 14.6721 26.1108 14.7341C27.2233 14.8127 28.3126 14.8064 29.1184 14.7596C30.0066 14.708 30.8302 14.5331 31.6044 14.2977C32.3846 14.0604 33.1105 13.7637 33.8015 13.4694C33.8554 13.4465 33.9943 13.3863 34.1483 13.3194C35.1276 12.8948 36.5971 12.2576 37.5182 12.2576C37.9321 12.2576 38.3176 12.3822 38.6392 12.5963C38.9679 12.815 39.2297 13.1277 39.3866 13.4965L39.3901 13.5038L39.3905 13.5044C39.5606 13.8471 39.6278 14.2399 39.5759 14.6476C39.527 15.0313 39.3721 15.4277 39.0975 15.806C38.6328 16.4466 37.8515 17.5259 37.1219 18.9899C36.3935 20.4518 35.7154 22.2992 35.4542 24.4809C35.443 24.5743 35.4337 24.6545 35.4244 24.7345C35.319 25.6401 35.416 27.2686 35.0005 28.4512C34.7693 29.1089 34.4251 29.6363 34.0009 30.0638C33.9585 30.1065 33.1735 30.5679 33.8566 30.0115C34.4704 29.5397 34.9562 28.8231 35.0632 27.74C35.1698 26.6623 35.7593 25.7959 36.5722 25.1784C37.4977 24.4755 38.7153 24.0956 39.8361 24.0956C40.2724 24.0956 40.6879 24.1888 41.0639 24.3567L41.0641 24.3563C41.0682 24.3582 41.0724 24.3601 41.0764 24.3624C41.4602 24.5359 41.8016 24.7873 42.0799 25.0964L42.0802 25.0962L42.0827 25.0985L42.087 25.1036C42.1164 25.135 42.1438 25.1662 42.1691 25.1967C42.1949 25.2281 42.2217 25.2631 42.2495 25.3017L42.2498 25.3015L42.2516 25.304L42.2517 25.3038L42.2542 25.3073C42.4475 25.5648 42.6012 25.8548 42.7057 26.1677C42.8076 26.4721 42.8627 26.7974 42.8627 27.1346C42.8627 28.4628 42.2196 29.6896 41.2542 30.1751C41.134 30.2355 40.4051 30.632 39.4233 30.668C39.0035 32.0729 39.207 32.6127 39.6392 33.759C39.8064 34.2025 40.007 34.7345 40.2211 35.4429C40.288 35.6639 40.3228 35.9083 40.3209 36.1565C40.3179 36.5469 40.2239 36.9486 40.0205 37.2869C39.8139 37.6304 39.4957 37.9087 39.0466 38.0455C38.8496 38.1056 38.6278 38.1379 38.3798 38.136L36.6811 38.1227C35.7533 38.1153 35.4029 38.09 35.0768 37.9889C34.4861 37.8061 34.4299 37.4948 34.3953 37.4398C33.5173 37.8278 32.1036 38.1109 29.8057 38.1485C28.7943 38.165 23.7142 38.1009 23.254 37.3873C23.2426 38.0873 22.4782 38.1185 22.1384 38.1294L20.9448 38.1117C19.7022 38.0931 19.2252 37.1277 19.2396 36.1547C19.2449 35.8 19.2674 35.4392 19.2919 35.0853C19.4015 33.4962 19.3593 32.5354 19.1877 32.5118C17.9357 32.3393 16.3758 31.8946 15.816 30.619H15.8152ZM18.3368 16.3583L18.3899 16.3419H18.3891L18.3367 16.3583H18.3368ZM18.4023 16.3381L18.4027 16.338L18.4017 16.3381L18.4013 16.3382L18.4023 16.3381ZM18.4148 16.3342L18.4164 16.3337L18.4153 16.3339L18.4138 16.3343L18.4148 16.3342ZM18.3363 16.3529V16.353L18.3513 16.3449H18.3512L18.3363 16.3529ZM18.3532 16.3437H18.3533H18.3531H18.3532ZM18.3635 16.3381L18.3639 16.3379H18.3636L18.3633 16.3381H18.3635Z" fill="#5A082D"/>
<path d="M40.4049 59.085V48.8511H38.6675V48.7359C39.785 48.3272 41.8677 47.3723 43.1315 46.0894H43.2463V50.3618H46.3885V51.6454H43.2463V58.946C43.2463 59.6056 43.4165 60.1342 43.7568 60.5317C44.0972 60.9331 44.5918 61.1317 45.2409 61.1317C45.874 61.1317 46.4321 60.9807 46.911 60.6787L47.002 60.8059C45.9967 62.0816 44.857 62.7136 43.5828 62.7055C42.6251 62.7055 41.8516 62.4213 41.2637 61.8432C40.684 61.2728 40.3971 60.3488 40.405 59.085H40.4049Z" fill="#5A082D"/>
<path d="M33.5411 62.205C34.1387 62.205 34.6492 62.0301 35.0767 61.6804C35.5081 61.3308 35.7218 60.8657 35.7218 60.2816C35.7218 59.7251 35.512 59.2603 35.0965 58.8866C34.6611 58.5051 34.1467 58.1832 33.5411 57.9209C33.0386 57.6944 32.4369 57.4003 31.7326 57.0348C31.0677 56.693 30.5413 56.224 30.1495 55.6319C29.7618 55.0397 29.5599 54.376 29.552 53.6487C29.552 52.9175 29.7539 52.2737 30.1575 51.7213C30.5573 51.1648 31.0678 50.7515 31.6851 50.4814C32.3065 50.2071 32.9712 50.072 33.6797 50.072C34.7957 50.072 36.923 50.2946 38.0429 50.7357L37.0315 53.7402H36.9405C35.7255 51.7055 34.5701 50.688 33.4737 50.688C32.9474 50.688 32.4963 50.851 32.1164 51.1728C31.7365 51.4948 31.5466 51.916 31.5466 52.4366C31.5466 53.315 32.2944 54.0661 33.7865 54.694C34.297 54.9205 34.9104 55.2146 35.6306 55.5802C36.3074 55.9298 36.8496 56.4068 37.2532 57.0109C37.6529 57.619 37.8588 58.2946 37.8666 59.0378C37.8666 59.6657 37.736 60.226 37.4788 60.7149C37.2176 61.2037 36.8693 61.5971 36.4301 61.8952C35.9868 62.1934 35.5001 62.4198 34.9619 62.5709C34.4238 62.7219 33.8577 62.8069 33.2642 62.8092C31.9187 62.8147 28.5615 62.3384 27.4177 61.7622C28.1447 61.0989 28.9523 60.1242 29.461 58.5609H29.5757C30.9214 60.989 32.2431 62.2051 33.5411 62.2051V62.205Z" fill="#5A082D"/>
<path d="M21.9362 62.8088C20.2741 62.7929 18.9128 62.2326 17.8442 61.1199C16.7796 60.0032 16.2454 58.5129 16.2454 56.6489C16.2454 54.7891 16.8232 53.2271 17.9827 51.9714C19.1423 50.7196 20.4601 50.0877 21.9361 50.0718C23.4122 50.0718 24.5758 50.4653 25.4266 51.2481C26.2695 52.023 26.689 53.2948 26.689 55.0553V55.8461H19.2371C19.2371 57.4557 19.629 58.6995 20.4164 59.5857C21.208 60.468 22.2052 60.9052 23.4083 60.8892C24.6074 60.8892 25.7076 60.4839 26.7128 59.6772L26.8512 59.7726C26.4278 60.4998 25.7906 61.1913 24.9398 61.8431C24.0889 62.5027 23.0877 62.8247 21.936 62.8087L21.9362 62.8088ZM21.869 50.7115C21.489 50.7115 21.1487 50.8268 20.8399 51.0573C20.5352 51.2838 20.2899 51.566 20.1039 51.8999C19.9218 52.2336 19.7596 52.6231 19.629 53.0642C19.4983 53.5053 19.4073 53.9067 19.3519 54.2645C19.2965 54.6222 19.2609 54.9758 19.2371 55.3216L24.081 55.0077C24.081 52.1462 23.3449 50.7115 21.8689 50.7115H21.869Z" fill="#5A082D"/>
<path d="M19.1701 64.0311L16.8696 64.2586C13.1351 64.6278 11.2864 62.6708 9.52163 60.2731C8.25903 58.5575 7.4101 56.6574 5.73372 55.1265H4.96257V59.2476C4.96257 60.2252 5.08923 60.9446 5.33467 61.4016C5.58787 61.8429 6.10239 62.1846 6.87811 62.4271V62.5185H0V62.4271C0.79148 62.1767 1.31 61.8349 1.56708 61.4016C1.8204 60.9486 1.94706 60.2333 1.93918 59.2476V49.3042C1.93918 48.3425 1.81252 47.6351 1.56708 47.186C1.30988 46.7489 0.791366 46.4071 0 46.1606V46.0652H7.19059C11.2391 46.0652 13.2653 47.4999 13.2653 50.3613C13.2653 51.4741 12.8404 52.3743 11.9911 53.0756C11.1465 53.7732 9.61437 54.4952 8.44691 54.7972C10.9945 55.9289 12.2285 58.6991 13.7106 60.3848C15.1923 62.0702 16.5652 63.1052 19.0193 63.6649L19.1701 64.0311ZM4.96257 46.88V54.3912H5.90446C7.2341 54.3912 8.2829 54.0653 9.05062 53.4135C9.81835 52.7618 10.2022 51.8 10.2022 50.5243C10.2022 49.5309 9.91725 48.6764 9.33946 47.957C8.76567 47.2418 7.99383 46.8801 7.0283 46.8801H4.96257V46.88Z" fill="#5A082D"/>
<path d="M15.8975 72.0781L17.6181 67.9815H19.476V68.2042C19.2031 68.2042 19.0202 68.2311 18.9299 68.2867C18.8395 68.3402 18.7698 68.4084 18.7164 68.4907C18.665 68.5712 18.6384 68.835 18.6384 69.2805V72.2246C18.6384 72.6082 18.6569 72.8535 18.6959 72.9648C18.7329 73.076 18.8129 73.1607 18.9299 73.2163C19.049 73.2719 19.2317 73.3008 19.476 73.3008V73.5235H16.8276V73.3008C17.1499 73.3008 17.3654 73.2389 17.4763 73.1152C17.5852 72.9935 17.6406 72.6947 17.6406 72.2246V68.8887L15.6943 73.5235H15.4849L13.4893 68.8887V72.2246C13.4893 72.606 13.5099 72.8535 13.5488 72.9648C13.59 73.076 13.668 73.1585 13.785 73.2163C13.9021 73.2719 14.0827 73.3008 14.327 73.3008V73.5235H12.2206V73.3008C12.5777 73.3008 12.8077 73.2347 12.9083 73.1049C13.009 72.9729 13.0582 72.6802 13.0582 72.2246V69.2805C13.0582 68.8474 13.0357 68.5898 12.9925 68.5114C12.9473 68.4331 12.8796 68.3609 12.7872 68.299C12.6948 68.2352 12.5059 68.2042 12.2205 68.2042V67.9815H14.1482L15.8975 72.0781ZM21.0507 70.072C21.0465 70.8905 21.2457 71.5318 21.646 71.9977C22.0465 72.4616 22.5186 72.6945 23.0607 72.6945C23.42 72.6945 23.734 72.5956 24.0009 72.3976C24.268 72.2018 24.4917 71.8575 24.6724 71.3709L24.8572 71.4926C24.773 72.0493 24.5287 72.5543 24.1243 73.0058C23.7198 73.4574 23.2128 73.6842 22.6049 73.6842C21.9438 73.6842 21.3773 73.4264 20.9071 72.909C20.4369 72.3915 20.2008 71.6968 20.2008 70.8247C20.2008 69.8803 20.4431 69.1423 20.9256 68.6146C21.4079 68.0847 22.0137 67.8208 22.7425 67.8208C23.3584 67.8208 23.8655 68.0248 24.2618 68.4331C24.658 68.8413 24.8572 69.3877 24.8572 70.0721H21.0508L21.0507 70.072ZM21.0507 69.7256H23.6005C23.58 69.3711 23.5388 69.1215 23.4752 68.9772C23.3746 68.7526 23.2248 68.5752 23.0257 68.4474C22.8285 68.3175 22.6212 68.2536 22.4036 68.2536C22.0711 68.2536 21.7733 68.3836 21.5106 68.6433C21.2478 68.903 21.0959 69.2639 21.0507 69.7256ZM26.1156 69.5648C26.5755 68.4021 27.3557 67.8207 28.4499 67.8207C29.2177 67.8207 29.844 68.1093 30.3326 68.6845C30.8192 69.2597 31.0635 69.9174 31.0635 70.6597C31.0635 71.4245 30.8172 72.1194 30.3223 72.746C29.8296 73.3708 29.1603 73.6842 28.3186 73.6842C27.4582 73.6842 26.8054 73.3275 26.3557 72.6141C25.9062 71.9008 25.6803 71.0308 25.6803 70.006C25.6803 69.2103 25.7974 68.4659 26.0293 67.7772C26.2633 67.0867 26.5076 66.5711 26.7643 66.2309C27.021 65.8887 27.3187 65.6392 27.6574 65.4826C27.9941 65.3258 28.5895 65.2434 29.4456 65.2351C30.0595 65.2269 30.4311 65.2082 30.5604 65.1815C30.6898 65.1527 30.8109 65.0723 30.9279 64.9382H31.162C31.0286 65.3362 30.8683 65.6208 30.6795 65.7919C30.4906 65.963 30.2894 66.0785 30.0718 66.1362C29.8542 66.196 29.4682 66.2331 28.9098 66.2495C28.3062 66.266 27.8915 66.3113 27.6595 66.3835C27.4296 66.4577 27.1894 66.6391 26.941 66.9236C26.6905 67.2102 26.4975 67.5855 26.3579 68.0494C26.2204 68.5133 26.1382 69.0184 26.1157 69.5647L26.1156 69.5648ZM28.2528 68.2288C27.8484 68.2288 27.5199 68.3959 27.2612 68.7297C27.0046 69.0658 26.8752 69.5915 26.8752 70.3071C26.8752 71.2781 27.0476 72.0142 27.3946 72.5131C27.7417 73.0141 28.1419 73.2635 28.5958 73.2635C29.0146 73.2635 29.343 73.0883 29.5832 72.7397C29.8234 72.3913 29.9425 71.8346 29.9425 71.0698C29.9425 70.2554 29.7864 69.5791 29.4723 69.0389C29.1582 68.4989 28.7517 68.2288 28.2528 68.2288ZM32.6237 70.072C32.6197 70.8905 32.8188 71.5318 33.2192 71.9977C33.6195 72.4616 34.0917 72.6945 34.6337 72.6945C34.993 72.6945 35.3072 72.5956 35.5741 72.3976C35.8411 72.2018 36.0648 71.8575 36.2455 71.3709L36.4303 71.4926C36.3461 72.0493 36.1018 72.5543 35.6974 73.0058C35.293 73.4574 34.7859 73.6842 34.178 73.6842C33.517 73.6842 32.9504 73.4264 32.4802 72.909C32.0101 72.3915 31.7739 71.6968 31.7739 70.8247C31.7739 69.8803 32.0161 69.1423 32.4987 68.6146C32.9811 68.0847 33.5868 67.8208 34.3155 67.8208C34.9316 67.8208 35.4386 68.0248 35.8349 68.4331C36.2312 68.8413 36.4303 69.3877 36.4303 70.0721H32.6239L32.6237 70.072ZM32.6237 69.7256H35.1736C35.153 69.3711 35.112 69.1215 35.0484 68.9772C34.9478 68.7526 34.7979 68.5752 34.5988 68.4474C34.4017 68.3175 34.1944 68.2536 33.9768 68.2536C33.6442 68.2536 33.3465 68.3836 33.0837 68.6433C32.821 68.903 32.669 69.2639 32.6237 69.7256ZM37.7585 67.9815H42.6736V68.2042C42.4005 68.2042 42.2177 68.2311 42.1274 68.2867C42.0371 68.3402 41.9672 68.4084 41.9139 68.4907C41.8626 68.5712 41.8359 68.835 41.8359 69.2805V72.2246C41.8359 72.6514 41.8585 72.9071 41.9016 72.9895C41.9468 73.0721 42.0167 73.1441 42.111 73.208C42.2054 73.2699 42.3924 73.3008 42.6736 73.3008V73.5235H39.8156V73.3008C40.1236 73.3008 40.3372 73.2843 40.4562 73.2533C40.5753 73.2204 40.6677 73.142 40.7354 73.0203C40.8032 72.8966 40.838 72.6307 40.838 72.2245V68.3773H39.0025V70.7132C39.0025 71.5957 38.9636 72.2162 38.8855 72.5729C38.8076 72.9295 38.6514 73.1934 38.4215 73.3646C38.1915 73.5357 37.9267 73.6223 37.629 73.6223C37.1159 73.6223 36.8591 73.4079 36.8591 72.9812C36.8591 72.8347 36.9002 72.7172 36.9822 72.6245C37.0645 72.5317 37.1732 72.4842 37.3045 72.4842C37.4463 72.4842 37.5756 72.5441 37.6966 72.6616C37.8547 72.8162 37.9718 72.8925 38.0518 72.8925C38.2346 72.8925 38.3659 72.7398 38.4481 72.4348C38.5303 72.1276 38.5713 71.5936 38.5713 70.8287V69.602C38.5713 68.9731 38.526 68.5897 38.4379 68.4515C38.3496 68.3155 38.1238 68.233 37.7583 68.2041V67.9814L37.7585 67.9815ZM45.0386 70.4556L45.7222 70.4431C47.3525 70.4431 48.1674 70.9503 48.1674 71.9648C48.1674 72.4369 47.9683 72.8142 47.57 73.0965C47.1718 73.3811 46.5968 73.5234 45.8475 73.5234H43.2031V73.3007C43.5602 73.3007 43.7902 73.2346 43.8908 73.1048C43.9915 72.9728 44.0407 72.6801 44.0407 72.2245V69.2804C44.0407 68.8473 44.0182 68.5897 43.975 68.5112C43.9298 68.433 43.8621 68.3608 43.7697 68.2988C43.6773 68.2351 43.4884 68.2041 43.203 68.2041V67.9814H46.0855V68.2041C45.6913 68.2041 45.447 68.2267 45.3566 68.2742C45.2642 68.3217 45.1884 68.3814 45.1288 68.4556C45.0693 68.5319 45.0384 68.8061 45.0384 69.2804V70.4556H45.0386ZM45.0386 73.043C45.2501 73.0987 45.4615 73.1275 45.673 73.1275C46.0733 73.1275 46.3978 73.0203 46.6482 72.808C46.8966 72.5936 47.0218 72.3235 47.0218 71.9978C47.0218 71.2246 46.4881 70.8392 45.4225 70.8392C45.3301 70.8392 45.2028 70.8412 45.0386 70.8454V73.0431V73.043Z" fill="#9D9E9E"/>
<path d="M54.9766 55.7817V54.3164C54.9846 53.3235 54.7334 52.5147 54.2191 51.8862C53.7048 51.2617 53.0271 50.9454 52.1858 50.9374C51.3367 50.9374 50.627 51.1535 50.0488 51.5819C50.4635 51.6621 50.8024 51.8342 51.0775 52.1064C51.3487 52.3747 51.4842 52.7069 51.4842 53.1072C51.4842 53.5076 51.3447 53.836 51.0656 54.1002C50.7865 54.3604 50.4476 54.4926 50.0489 54.4926C49.6503 54.4926 49.3074 54.3524 49.0204 54.0761C48.7333 53.7959 48.5898 53.4636 48.5898 53.0712C48.5898 52.3064 49.136 51.6179 50.2245 51.0093C51.3049 50.3967 52.489 50.0925 53.7768 50.0925C55.0526 50.0925 56.0492 50.4128 56.7709 51.0533C57.4926 51.6979 57.8514 52.6509 57.8514 53.9159V59.6051C57.8514 60.4339 58.0029 61.0064 58.3059 61.3228C58.6129 61.6391 59.1751 61.8313 60.0004 61.8913V61.9874C59.6255 62.2156 59.1351 62.4118 58.5251 62.58C57.9112 62.748 57.3929 62.8322 56.9623 62.8322C56.4202 62.8322 55.9736 62.7042 55.6266 62.4519C55.2798 62.1957 55.0725 61.8073 55.0007 61.2828C53.7647 62.3638 52.5448 62.9084 51.3448 62.9244C50.4596 62.9244 49.7182 62.6602 49.1201 62.1277C48.526 61.5951 48.231 60.8906 48.2389 60.0178C48.2389 58.9768 48.7891 58.064 49.8855 57.2833C50.9699 56.5106 52.6644 56.0101 54.9767 55.7818L54.9766 55.7817ZM54.2669 56.4383C53.4256 56.4383 52.6921 56.6745 52.0621 57.143C51.4361 57.6115 51.1253 58.2521 51.1253 59.0648C51.1373 59.8736 51.3684 60.4581 51.8111 60.8265C52.2734 61.2148 52.7998 61.411 53.4018 61.411C53.9998 61.411 54.5261 61.2748 54.9767 61.0025V56.5105C54.7294 56.4624 54.4903 56.4383 54.267 56.4383H54.2669Z" fill="#5A082D"/>
</g>
<defs>
<clipPath id="clip0_823_1818">
<rect width="60" height="73.6841" fill="white"/>
</clipPath>
</defs>
</svg>
