<svg width="14" height="14" viewBox="0 0 14 14" fill="none" xmlns="http://www.w3.org/2000/svg">
<path d="M7.77472 4.35595C7.60311 4.18586 7.3261 4.1871 7.15601 4.35871C6.98592 4.53033 6.98716 4.80733 7.15877 4.97742L7.98149 5.79283C8.31685 6.12521 8.54164 6.34894 8.69278 6.53714C8.69971 6.54577 8.70641 6.55423 8.71287 6.56252L4.66675 6.56252C4.42512 6.56252 4.22925 6.7584 4.22925 7.00002C4.22925 7.24165 4.42512 7.43752 4.66675 7.43752L8.71287 7.43752C8.70641 7.44581 8.69971 7.45427 8.69278 7.4629C8.54164 7.6511 8.31685 7.87483 7.98149 8.20721L7.15877 9.02262C6.98716 9.19271 6.98592 9.46972 7.15601 9.64133C7.3261 9.81295 7.60311 9.81418 7.77472 9.64409L8.6154 8.81089C8.92816 8.50092 9.18902 8.24239 9.37501 8.0108C9.57009 7.76788 9.71848 7.51259 9.75812 7.20156C9.76665 7.13465 9.77092 7.06734 9.77092 7.00002C9.77092 6.9327 9.76665 6.86539 9.75812 6.79848C9.71848 6.48745 9.57009 6.23216 9.37501 5.98925C9.18902 5.75765 8.92817 5.49914 8.61541 5.18917L7.77472 4.35595Z" fill="#949396"/>
<path fill-rule="evenodd" clip-rule="evenodd" d="M7.00008 0.729187C3.5368 0.729187 0.729248 3.53673 0.729248 7.00002C0.729248 10.4633 3.5368 13.2709 7.00008 13.2709C10.4634 13.2709 13.2709 10.4633 13.2709 7.00002C13.2709 3.53673 10.4634 0.729187 7.00008 0.729187ZM1.60425 7.00002C1.60425 4.01998 4.02005 1.60419 7.00008 1.60419C9.98012 1.60419 12.3959 4.01998 12.3959 7.00002C12.3959 9.98006 9.98012 12.3959 7.00008 12.3959C4.02005 12.3959 1.60425 9.98006 1.60425 7.00002Z" fill="#949396"/>
</svg>
