<svg width="30" height="30" viewBox="0 0 30 30" fill="none" xmlns="http://www.w3.org/2000/svg">
<path d="M14.6374 10.377C15.0296 9.98822 15.0324 9.35507 14.6437 8.9628C14.2549 8.57054 13.6217 8.56772 13.2295 8.95649L11.3079 10.861C10.593 11.5695 9.99679 12.1604 9.57167 12.6897C9.12577 13.245 8.78661 13.8285 8.69599 14.5394C8.6765 14.6924 8.66675 14.8462 8.66675 15.0001C8.66675 15.1539 8.6765 15.3078 8.69599 15.4607C8.78661 16.1717 9.12577 16.7552 9.57167 17.3104C9.99679 17.8398 10.593 18.4307 11.3079 19.1392L13.2295 21.0437C13.6217 21.4324 14.2549 21.4296 14.6437 21.0374C15.0324 20.6451 15.0296 20.0119 14.6374 19.6232L12.7569 17.7594C11.9903 16.9996 11.4765 16.4883 11.1311 16.0581C11.1152 16.0384 11.0999 16.019 11.0851 16.0001H20.3334C20.8857 16.0001 21.3334 15.5524 21.3334 15.0001C21.3334 14.4478 20.8857 14.0001 20.3334 14.0001H11.0851C11.0999 13.9811 11.1152 13.9618 11.1311 13.9421C11.4765 13.5119 11.9903 13.0005 12.7569 12.2408L14.6374 10.377Z" fill="#5D5B61"/>
<path fill-rule="evenodd" clip-rule="evenodd" d="M15.0001 0.666748C7.084 0.666748 0.666748 7.084 0.666748 15.0001C0.666748 22.9162 7.084 29.3334 15.0001 29.3334C22.9162 29.3334 29.3334 22.9162 29.3334 15.0001C29.3334 7.084 22.9162 0.666748 15.0001 0.666748ZM2.66675 15.0001C2.66675 8.18857 8.18857 2.66675 15.0001 2.66675C21.8116 2.66675 27.3334 8.18857 27.3334 15.0001C27.3334 21.8116 21.8116 27.3334 15.0001 27.3334C8.18857 27.3334 2.66675 21.8116 2.66675 15.0001Z" fill="#5D5B61"/>
</svg>
