<svg width="42" height="37" viewBox="0 0 42 37" fill="none" xmlns="http://www.w3.org/2000/svg">
<path d="M5.38626 30.3061H3.44312V28.0793H5.38626V30.3061Z" fill="#BE6981"/>
<path d="M5.38626 30.3061H3.44312V28.0793H5.38626V30.3061Z" fill="black" fill-opacity="0.2"/>
<path d="M5.38626 30.3061H3.44312V28.0793H5.38626V30.3061Z" stroke="black"/>
<path d="M5.38626 30.3061H3.44312V28.0793H5.38626V30.3061Z" stroke="black" stroke-opacity="0.2"/>
<path d="M35.4063 30.3061H33.4631V28.0793H35.4063V30.3061Z" fill="#BE6981"/>
<path d="M35.4063 30.3061H33.4631V28.0793H35.4063V30.3061Z" fill="black" fill-opacity="0.2"/>
<path d="M35.4063 30.3061H33.4631V28.0793H35.4063V30.3061Z" stroke="black"/>
<path d="M35.4063 30.3061H33.4631V28.0793H35.4063V30.3061Z" stroke="black" stroke-opacity="0.2"/>
<path d="M31.1973 22.7011H31.6973V22.2011V15.446C31.6973 15.0357 31.9333 14.5634 32.3559 14.1774C32.7752 13.7945 33.3131 13.5581 33.8114 13.5581H36.1659C37.0894 13.5581 37.7608 14.4325 37.7608 15.446V22.6961V27.6173H32.012H10.2798H3.44312V22.4671V15.446C3.44312 15.0357 3.67913 14.5634 4.10174 14.1774C4.52103 13.7945 5.05893 13.5581 5.55722 13.5581H7.91173C8.8352 13.5581 9.50666 14.4325 9.50666 15.446V22.2011V22.7011H10.0067H31.1973Z" fill="#BE6981"/>
<path d="M31.1973 22.7011H31.6973V22.2011V15.446C31.6973 15.0357 31.9333 14.5634 32.3559 14.1774C32.7752 13.7945 33.3131 13.5581 33.8114 13.5581H36.1659C37.0894 13.5581 37.7608 14.4325 37.7608 15.446V22.6961V27.6173H32.012H10.2798H3.44312V22.4671V15.446C3.44312 15.0357 3.67913 14.5634 4.10174 14.1774C4.52103 13.7945 5.05893 13.5581 5.55722 13.5581H7.91173C8.8352 13.5581 9.50666 14.4325 9.50666 15.446V22.2011V22.7011H10.0067H31.1973Z" fill="black" fill-opacity="0.2"/>
<path d="M31.1973 22.7011H31.6973V22.2011V15.446C31.6973 15.0357 31.9333 14.5634 32.3559 14.1774C32.7752 13.7945 33.3131 13.5581 33.8114 13.5581H36.1659C37.0894 13.5581 37.7608 14.4325 37.7608 15.446V22.6961V27.6173H32.012H10.2798H3.44312V22.4671V15.446C3.44312 15.0357 3.67913 14.5634 4.10174 14.1774C4.52103 13.7945 5.05893 13.5581 5.55722 13.5581H7.91173C8.8352 13.5581 9.50666 14.4325 9.50666 15.446V22.2011V22.7011H10.0067H31.1973Z" stroke="black"/>
<path d="M31.1973 22.7011H31.6973V22.2011V15.446C31.6973 15.0357 31.9333 14.5634 32.3559 14.1774C32.7752 13.7945 33.3131 13.5581 33.8114 13.5581H36.1659C37.0894 13.5581 37.7608 14.4325 37.7608 15.446V22.6961V27.6173H32.012H10.2798H3.44312V22.4671V15.446C3.44312 15.0357 3.67913 14.5634 4.10174 14.1774C4.52103 13.7945 5.05893 13.5581 5.55722 13.5581H7.91173C8.8352 13.5581 9.50666 14.4325 9.50666 15.446V22.2011V22.7011H10.0067H31.1973Z" stroke="black" stroke-opacity="0.2"/>
<path d="M30.6973 21.7011H10.5066V15.246C10.5066 14.0149 9.69423 12.5581 8.13007 12.5581H7.56348V4.15158C7.56348 3.74159 7.79943 3.26948 8.22207 2.88354C8.64138 2.50063 9.17929 2.26425 9.67758 2.26425H31.4568C32.3804 2.26425 33.0518 3.1387 33.0518 4.15158V12.5571C31.7457 12.7754 30.6973 13.8326 30.6973 15.167V21.7011Z" fill="#BE6981"/>
<path d="M30.6973 21.7011H10.5066V15.246C10.5066 14.0149 9.69423 12.5581 8.13007 12.5581H7.56348V4.15158C7.56348 3.74159 7.79943 3.26948 8.22207 2.88354C8.64138 2.50063 9.17929 2.26425 9.67758 2.26425H31.4568C32.3804 2.26425 33.0518 3.1387 33.0518 4.15158V12.5571C31.7457 12.7754 30.6973 13.8326 30.6973 15.167V21.7011Z" fill="black" fill-opacity="0.2"/>
<path d="M30.6973 21.7011H10.5066V15.246C10.5066 14.0149 9.69423 12.5581 8.13007 12.5581H7.56348V4.15158C7.56348 3.74159 7.79943 3.26948 8.22207 2.88354C8.64138 2.50063 9.17929 2.26425 9.67758 2.26425H31.4568C32.3804 2.26425 33.0518 3.1387 33.0518 4.15158V12.5571C31.7457 12.7754 30.6973 13.8326 30.6973 15.167V21.7011Z" stroke="black"/>
<path d="M30.6973 21.7011H10.5066V15.246C10.5066 14.0149 9.69423 12.5581 8.13007 12.5581H7.56348V4.15158C7.56348 3.74159 7.79943 3.26948 8.22207 2.88354C8.64138 2.50063 9.17929 2.26425 9.67758 2.26425H31.4568C32.3804 2.26425 33.0518 3.1387 33.0518 4.15158V12.5571C31.7457 12.7754 30.6973 13.8326 30.6973 15.167V21.7011Z" stroke="black" stroke-opacity="0.2"/>
<path d="M12.8481 12.9861C12.6433 12.9007 12.4426 12.8516 12.2727 12.8232V7.91638C12.2727 7.5064 12.5087 7.03428 12.9313 6.64834C13.3506 6.26543 13.8885 6.02905 14.3868 6.02905H26.748C27.6715 6.02905 28.3429 6.90351 28.3429 7.91638V12.8681C28.2406 12.8999 28.1283 12.9444 28.0144 13.0067C27.8047 13.1213 27.5865 13.2986 27.4227 13.5674C27.2582 13.8373 27.1657 14.1713 27.1657 14.5721V17.9363H14.0386V14.8413C14.0386 14.336 13.9006 13.9261 13.6641 13.6077C13.4313 13.2944 13.1282 13.1029 12.8481 12.9861Z" fill="#BE6981"/>
<path d="M12.8481 12.9861C12.6433 12.9007 12.4426 12.8516 12.2727 12.8232V7.91638C12.2727 7.5064 12.5087 7.03428 12.9313 6.64834C13.3506 6.26543 13.8885 6.02905 14.3868 6.02905H26.748C27.6715 6.02905 28.3429 6.90351 28.3429 7.91638V12.8681C28.2406 12.8999 28.1283 12.9444 28.0144 13.0067C27.8047 13.1213 27.5865 13.2986 27.4227 13.5674C27.2582 13.8373 27.1657 14.1713 27.1657 14.5721V17.9363H14.0386V14.8413C14.0386 14.336 13.9006 13.9261 13.6641 13.6077C13.4313 13.2944 13.1282 13.1029 12.8481 12.9861Z" fill="black" fill-opacity="0.2"/>
<path d="M12.8481 12.9861C12.6433 12.9007 12.4426 12.8516 12.2727 12.8232V7.91638C12.2727 7.5064 12.5087 7.03428 12.9313 6.64834C13.3506 6.26543 13.8885 6.02905 14.3868 6.02905H26.748C27.6715 6.02905 28.3429 6.90351 28.3429 7.91638V12.8681C28.2406 12.8999 28.1283 12.9444 28.0144 13.0067C27.8047 13.1213 27.5865 13.2986 27.4227 13.5674C27.2582 13.8373 27.1657 14.1713 27.1657 14.5721V17.9363H14.0386V14.8413C14.0386 14.336 13.9006 13.9261 13.6641 13.6077C13.4313 13.2944 13.1282 13.1029 12.8481 12.9861Z" stroke="black"/>
<path d="M12.8481 12.9861C12.6433 12.9007 12.4426 12.8516 12.2727 12.8232V7.91638C12.2727 7.5064 12.5087 7.03428 12.9313 6.64834C13.3506 6.26543 13.8885 6.02905 14.3868 6.02905H26.748C27.6715 6.02905 28.3429 6.90351 28.3429 7.91638V12.8681C28.2406 12.8999 28.1283 12.9444 28.0144 13.0067C27.8047 13.1213 27.5865 13.2986 27.4227 13.5674C27.2582 13.8373 27.1657 14.1713 27.1657 14.5721V17.9363H14.0386V14.8413C14.0386 14.336 13.9006 13.9261 13.6641 13.6077C13.4313 13.2944 13.1282 13.1029 12.8481 12.9861Z" stroke="black" stroke-opacity="0.2"/>
<g filter="url(#filter0_d_202_1886)">
<path d="M36.2007 28.1173H0.882943C0.395559 28.1173 0 27.7556 0 27.3106V14.3705C0 12.7303 1.40741 11.4447 3.20273 11.4447H5.55725C7.36198 11.4447 8.82943 12.7571 8.82943 14.3705V20.5877H28.2542V14.3705C28.2542 12.7303 29.6616 11.4447 31.4569 11.4447H33.8114C35.6162 11.4447 37.0836 12.7571 37.0836 14.3705V27.3106C37.0836 27.7556 36.6881 28.1173 36.2007 28.1173ZM1.76589 26.5039H35.3177V14.3705C35.3177 13.6471 34.642 13.0581 33.8114 13.0581H31.4569C30.6511 13.0581 30.0201 13.6342 30.0201 14.3705V21.3944C30.0201 21.8399 29.6245 22.2011 29.1371 22.2011H7.94649C7.45911 22.2011 7.06355 21.8399 7.06355 21.3944V14.3705C7.06355 13.6471 6.38839 13.0581 5.55725 13.0581H3.20273C2.3969 13.0581 1.76589 13.6342 1.76589 14.3705V26.5039Z" fill="#BE6981"/>
<path d="M36.2007 28.1173H0.882943C0.395559 28.1173 0 27.7556 0 27.3106V14.3705C0 12.7303 1.40741 11.4447 3.20273 11.4447H5.55725C7.36198 11.4447 8.82943 12.7571 8.82943 14.3705V20.5877H28.2542V14.3705C28.2542 12.7303 29.6616 11.4447 31.4569 11.4447H33.8114C35.6162 11.4447 37.0836 12.7571 37.0836 14.3705V27.3106C37.0836 27.7556 36.6881 28.1173 36.2007 28.1173ZM1.76589 26.5039H35.3177V14.3705C35.3177 13.6471 34.642 13.0581 33.8114 13.0581H31.4569C30.6511 13.0581 30.0201 13.6342 30.0201 14.3705V21.3944C30.0201 21.8399 29.6245 22.2011 29.1371 22.2011H7.94649C7.45911 22.2011 7.06355 21.8399 7.06355 21.3944V14.3705C7.06355 13.6471 6.38839 13.0581 5.55725 13.0581H3.20273C2.3969 13.0581 1.76589 13.6342 1.76589 14.3705V26.5039Z" fill="black" fill-opacity="0.2"/>
<path d="M8.32943 20.5877V21.0877H8.82943H28.2542H28.7542V20.5877V14.3705C28.7542 13.048 29.8942 11.9447 31.4569 11.9447H33.8114C35.3941 11.9447 36.5836 13.0844 36.5836 14.3705V27.3106C36.5836 27.438 36.4552 27.6173 36.2007 27.6173H0.882943C0.628369 27.6173 0.5 27.438 0.5 27.3106V14.3705C0.5 13.048 1.64002 11.9447 3.20273 11.9447H5.55725C7.13987 11.9447 8.32943 13.0844 8.32943 14.3705V20.5877ZM1.26589 26.5039V27.0039H1.76589H35.3177H35.8177V26.5039V14.3705C35.8177 13.3086 34.8513 12.5581 33.8114 12.5581H31.4569C30.4186 12.5581 29.5201 13.3164 29.5201 14.3705V21.3944C29.5201 21.5222 29.3919 21.7011 29.1371 21.7011H7.94649C7.69169 21.7011 7.56355 21.5222 7.56355 21.3944V14.3705C7.56355 13.3087 6.59782 12.5581 5.55725 12.5581H3.20273C2.1644 12.5581 1.26589 13.3164 1.26589 14.3705V26.5039Z" stroke="black"/>
<path d="M8.32943 20.5877V21.0877H8.82943H28.2542H28.7542V20.5877V14.3705C28.7542 13.048 29.8942 11.9447 31.4569 11.9447H33.8114C35.3941 11.9447 36.5836 13.0844 36.5836 14.3705V27.3106C36.5836 27.438 36.4552 27.6173 36.2007 27.6173H0.882943C0.628369 27.6173 0.5 27.438 0.5 27.3106V14.3705C0.5 13.048 1.64002 11.9447 3.20273 11.9447H5.55725C7.13987 11.9447 8.32943 13.0844 8.32943 14.3705V20.5877ZM1.26589 26.5039V27.0039H1.76589H35.3177H35.8177V26.5039V14.3705C35.8177 13.3086 34.8513 12.5581 33.8114 12.5581H31.4569C30.4186 12.5581 29.5201 13.3164 29.5201 14.3705V21.3944C29.5201 21.5222 29.3919 21.7011 29.1371 21.7011H7.94649C7.69169 21.7011 7.56355 21.5222 7.56355 21.3944V14.3705C7.56355 13.3087 6.59782 12.5581 5.55725 12.5581H3.20273C2.1644 12.5581 1.26589 13.3164 1.26589 14.3705V26.5039Z" stroke="black" stroke-opacity="0.2"/>
</g>
<g filter="url(#filter1_d_202_1886)">
<path d="M29.1371 22.2011H7.94645C7.45906 22.2011 7.06351 21.8399 7.06351 21.3944V14.1701C7.06351 13.5574 6.48547 13.0581 5.77559 13.0581H5.0033C4.51592 13.0581 4.12036 12.6969 4.12036 12.2514V3.07615C4.12036 1.43588 5.52777 0.150848 7.32309 0.150848H29.1024C30.9071 0.150848 32.3745 1.46329 32.3745 3.07615V11.9397C32.3745 12.3852 31.979 12.7464 31.4916 12.7464C30.6799 12.7464 30.02 13.3494 30.02 14.0911V21.3944C30.02 21.8399 29.6245 22.2011 29.1371 22.2011ZM8.82939 20.5877H28.2541V14.0911C28.2541 12.7394 29.2513 11.5968 30.6087 11.2448V3.07615C30.6087 2.35276 29.9335 1.76425 29.1024 1.76425H7.32309C6.51726 1.76425 5.88625 2.34039 5.88625 3.07615V11.4463C7.5191 11.4984 8.82939 12.7002 8.82939 14.1701V20.5877Z" fill="#BE6981"/>
<path d="M29.1371 22.2011H7.94645C7.45906 22.2011 7.06351 21.8399 7.06351 21.3944V14.1701C7.06351 13.5574 6.48547 13.0581 5.77559 13.0581H5.0033C4.51592 13.0581 4.12036 12.6969 4.12036 12.2514V3.07615C4.12036 1.43588 5.52777 0.150848 7.32309 0.150848H29.1024C30.9071 0.150848 32.3745 1.46329 32.3745 3.07615V11.9397C32.3745 12.3852 31.979 12.7464 31.4916 12.7464C30.6799 12.7464 30.02 13.3494 30.02 14.0911V21.3944C30.02 21.8399 29.6245 22.2011 29.1371 22.2011ZM8.82939 20.5877H28.2541V14.0911C28.2541 12.7394 29.2513 11.5968 30.6087 11.2448V3.07615C30.6087 2.35276 29.9335 1.76425 29.1024 1.76425H7.32309C6.51726 1.76425 5.88625 2.34039 5.88625 3.07615V11.4463C7.5191 11.4984 8.82939 12.7002 8.82939 14.1701V20.5877Z" fill="black" fill-opacity="0.2"/>
<path d="M8.32939 20.5877V21.0877H8.82939H28.2541H28.7541V20.5877V14.0911C28.7541 13.0003 29.5636 12.0323 30.7342 11.7288L31.1087 11.6316V11.2448V3.07615C31.1087 2.01408 30.1427 1.26425 29.1024 1.26425H7.32309C6.2849 1.26425 5.38625 2.02241 5.38625 3.07615V11.4463V11.9306L5.87029 11.946C7.28681 11.9913 8.32939 13.0206 8.32939 14.1701V20.5877ZM29.1371 21.7011H7.94645C7.69165 21.7011 7.56351 21.5222 7.56351 21.3944V14.1701C7.56351 13.2149 6.69022 12.5581 5.77559 12.5581H5.0033C4.7485 12.5581 4.62036 12.3792 4.62036 12.2514V3.07615C4.62036 1.75374 5.76026 0.650848 7.32309 0.650848H29.1024C30.685 0.650848 31.8745 1.79059 31.8745 3.07615V11.9397C31.8745 12.0674 31.7464 12.2464 31.4916 12.2464C30.4471 12.2464 29.52 13.0318 29.52 14.0911V21.3944C29.52 21.5222 29.3919 21.7011 29.1371 21.7011Z" stroke="black"/>
<path d="M8.32939 20.5877V21.0877H8.82939H28.2541H28.7541V20.5877V14.0911C28.7541 13.0003 29.5636 12.0323 30.7342 11.7288L31.1087 11.6316V11.2448V3.07615C31.1087 2.01408 30.1427 1.26425 29.1024 1.26425H7.32309C6.2849 1.26425 5.38625 2.02241 5.38625 3.07615V11.4463V11.9306L5.87029 11.946C7.28681 11.9913 8.32939 13.0206 8.32939 14.1701V20.5877ZM29.1371 21.7011H7.94645C7.69165 21.7011 7.56351 21.5222 7.56351 21.3944V14.1701C7.56351 13.2149 6.69022 12.5581 5.77559 12.5581H5.0033C4.7485 12.5581 4.62036 12.3792 4.62036 12.2514V3.07615C4.62036 1.75374 5.76026 0.650848 7.32309 0.650848H29.1024C30.685 0.650848 31.8745 1.79059 31.8745 3.07615V11.9397C31.8745 12.0674 31.7464 12.2464 31.4916 12.2464C30.4471 12.2464 29.52 13.0318 29.52 14.0911V21.3944C29.52 21.5222 29.3919 21.7011 29.1371 21.7011Z" stroke="black" stroke-opacity="0.2"/>
</g>
<path d="M26.7825 12.5151H26.7644L26.7463 12.5164C26.6132 12.5261 26.3813 12.571 26.2014 12.7868C26.0363 12.9849 25.9882 13.2416 25.9882 13.4967V17.6296C25.9882 17.7574 25.8601 17.9363 25.6053 17.9363H11.4782C11.2234 17.9363 11.0952 17.7574 11.0952 17.6296V13.7659C11.0952 13.7622 11.0952 13.7581 11.0953 13.7537C11.0956 13.6457 11.0967 13.33 10.9099 13.0415C10.6871 12.6973 10.2913 12.5146 9.75526 12.5146C9.63192 12.5146 9.51537 12.4679 9.43435 12.3986C9.35416 12.33 9.32935 12.2598 9.32935 12.2084V6.84096C9.32935 5.51854 10.4692 4.41565 12.0321 4.41565H24.3933C25.976 4.41565 27.1655 5.55539 27.1655 6.84096V12.2084C27.1655 12.3362 27.0373 12.5151 26.7825 12.5151ZM24.7223 17.3229H25.2223V16.8229V13.4967C25.2223 12.6838 25.641 12.2575 26.1033 12.0513L26.3996 11.9191V11.5946V6.84096C26.3996 5.77876 25.4329 5.02906 24.3933 5.02906H12.0321C10.9939 5.02906 10.0952 5.78721 10.0952 6.84096V11.5081V11.8929L10.4672 11.9914C10.8734 12.099 11.2196 12.2987 11.4619 12.5806C11.6992 12.8567 11.8611 13.2393 11.8611 13.7659V16.8229H12.3611V17.3229H24.7223Z" fill="#BE6981"/>
<path d="M26.7825 12.5151H26.7644L26.7463 12.5164C26.6132 12.5261 26.3813 12.571 26.2014 12.7868C26.0363 12.9849 25.9882 13.2416 25.9882 13.4967V17.6296C25.9882 17.7574 25.8601 17.9363 25.6053 17.9363H11.4782C11.2234 17.9363 11.0952 17.7574 11.0952 17.6296V13.7659C11.0952 13.7622 11.0952 13.7581 11.0953 13.7537C11.0956 13.6457 11.0967 13.33 10.9099 13.0415C10.6871 12.6973 10.2913 12.5146 9.75526 12.5146C9.63192 12.5146 9.51537 12.4679 9.43435 12.3986C9.35416 12.33 9.32935 12.2598 9.32935 12.2084V6.84096C9.32935 5.51854 10.4692 4.41565 12.0321 4.41565H24.3933C25.976 4.41565 27.1655 5.55539 27.1655 6.84096V12.2084C27.1655 12.3362 27.0373 12.5151 26.7825 12.5151ZM24.7223 17.3229H25.2223V16.8229V13.4967C25.2223 12.6838 25.641 12.2575 26.1033 12.0513L26.3996 11.9191V11.5946V6.84096C26.3996 5.77876 25.4329 5.02906 24.3933 5.02906H12.0321C10.9939 5.02906 10.0952 5.78721 10.0952 6.84096V11.5081V11.8929L10.4672 11.9914C10.8734 12.099 11.2196 12.2987 11.4619 12.5806C11.6992 12.8567 11.8611 13.2393 11.8611 13.7659V16.8229H12.3611V17.3229H24.7223Z" fill="black" fill-opacity="0.2"/>
<path d="M26.7825 12.5151H26.7644L26.7463 12.5164C26.6132 12.5261 26.3813 12.571 26.2014 12.7868C26.0363 12.9849 25.9882 13.2416 25.9882 13.4967V17.6296C25.9882 17.7574 25.8601 17.9363 25.6053 17.9363H11.4782C11.2234 17.9363 11.0952 17.7574 11.0952 17.6296V13.7659C11.0952 13.7622 11.0952 13.7581 11.0953 13.7537C11.0956 13.6457 11.0967 13.33 10.9099 13.0415C10.6871 12.6973 10.2913 12.5146 9.75526 12.5146C9.63192 12.5146 9.51537 12.4679 9.43435 12.3986C9.35416 12.33 9.32935 12.2598 9.32935 12.2084V6.84096C9.32935 5.51854 10.4692 4.41565 12.0321 4.41565H24.3933C25.976 4.41565 27.1655 5.55539 27.1655 6.84096V12.2084C27.1655 12.3362 27.0373 12.5151 26.7825 12.5151ZM24.7223 17.3229H25.2223V16.8229V13.4967C25.2223 12.6838 25.641 12.2575 26.1033 12.0513L26.3996 11.9191V11.5946V6.84096C26.3996 5.77876 25.4329 5.02906 24.3933 5.02906H12.0321C10.9939 5.02906 10.0952 5.78721 10.0952 6.84096V11.5081V11.8929L10.4672 11.9914C10.8734 12.099 11.2196 12.2987 11.4619 12.5806C11.6992 12.8567 11.8611 13.2393 11.8611 13.7659V16.8229H12.3611V17.3229H24.7223Z" stroke="black"/>
<path d="M26.7825 12.5151H26.7644L26.7463 12.5164C26.6132 12.5261 26.3813 12.571 26.2014 12.7868C26.0363 12.9849 25.9882 13.2416 25.9882 13.4967V17.6296C25.9882 17.7574 25.8601 17.9363 25.6053 17.9363H11.4782C11.2234 17.9363 11.0952 17.7574 11.0952 17.6296V13.7659C11.0952 13.7622 11.0952 13.7581 11.0953 13.7537C11.0956 13.6457 11.0967 13.33 10.9099 13.0415C10.6871 12.6973 10.2913 12.5146 9.75526 12.5146C9.63192 12.5146 9.51537 12.4679 9.43435 12.3986C9.35416 12.33 9.32935 12.2598 9.32935 12.2084V6.84096C9.32935 5.51854 10.4692 4.41565 12.0321 4.41565H24.3933C25.976 4.41565 27.1655 5.55539 27.1655 6.84096V12.2084C27.1655 12.3362 27.0373 12.5151 26.7825 12.5151ZM24.7223 17.3229H25.2223V16.8229V13.4967C25.2223 12.6838 25.641 12.2575 26.1033 12.0513L26.3996 11.9191V11.5946V6.84096C26.3996 5.77876 25.4329 5.02906 24.3933 5.02906H12.0321C10.9939 5.02906 10.0952 5.78721 10.0952 6.84096V11.5081V11.8929L10.4672 11.9914C10.8734 12.099 11.2196 12.2987 11.4619 12.5806C11.6992 12.8567 11.8611 13.2393 11.8611 13.7659V16.8229H12.3611V17.3229H24.7223Z" stroke="black" stroke-opacity="0.2"/>
<path d="M2.44313 29.7307V30.2307H2.94313H4.12039H4.62039V29.7307V28.1173V27.6173H4.12039H2.94313H2.44313V28.1173V29.7307ZM5.00333 30.8441H2.06019C1.80539 30.8441 1.67725 30.6651 1.67725 30.5374V27.3105C1.67725 27.1828 1.80539 27.0038 2.06019 27.0038H5.00333C5.25813 27.0038 5.38628 27.1828 5.38628 27.3105V30.5374C5.38628 30.6651 5.25813 30.8441 5.00333 30.8441Z" fill="#BE6981"/>
<path d="M2.44313 29.7307V30.2307H2.94313H4.12039H4.62039V29.7307V28.1173V27.6173H4.12039H2.94313H2.44313V28.1173V29.7307ZM5.00333 30.8441H2.06019C1.80539 30.8441 1.67725 30.6651 1.67725 30.5374V27.3105C1.67725 27.1828 1.80539 27.0038 2.06019 27.0038H5.00333C5.25813 27.0038 5.38628 27.1828 5.38628 27.3105V30.5374C5.38628 30.6651 5.25813 30.8441 5.00333 30.8441Z" fill="black" fill-opacity="0.2"/>
<path d="M2.44313 29.7307V30.2307H2.94313H4.12039H4.62039V29.7307V28.1173V27.6173H4.12039H2.94313H2.44313V28.1173V29.7307ZM5.00333 30.8441H2.06019C1.80539 30.8441 1.67725 30.6651 1.67725 30.5374V27.3105C1.67725 27.1828 1.80539 27.0038 2.06019 27.0038H5.00333C5.25813 27.0038 5.38628 27.1828 5.38628 27.3105V30.5374C5.38628 30.6651 5.25813 30.8441 5.00333 30.8441Z" stroke="black"/>
<path d="M2.44313 29.7307V30.2307H2.94313H4.12039H4.62039V29.7307V28.1173V27.6173H4.12039H2.94313H2.44313V28.1173V29.7307ZM5.00333 30.8441H2.06019C1.80539 30.8441 1.67725 30.6651 1.67725 30.5374V27.3105C1.67725 27.1828 1.80539 27.0038 2.06019 27.0038H5.00333C5.25813 27.0038 5.38628 27.1828 5.38628 27.3105V30.5374C5.38628 30.6651 5.25813 30.8441 5.00333 30.8441Z" stroke="black" stroke-opacity="0.2"/>
<path d="M32.4632 29.7307V30.2307H32.9632H34.1404H34.6404V29.7307V28.1173V27.6173H34.1404H32.9632H32.4632V28.1173V29.7307ZM35.0234 30.8441H32.0802C31.8254 30.8441 31.6973 30.6651 31.6973 30.5374V27.3105C31.6973 27.1828 31.8254 27.0038 32.0802 27.0038H35.0234C35.2782 27.0038 35.4063 27.1828 35.4063 27.3105V30.5374C35.4063 30.6651 35.2782 30.8441 35.0234 30.8441Z" fill="#BE6981"/>
<path d="M32.4632 29.7307V30.2307H32.9632H34.1404H34.6404V29.7307V28.1173V27.6173H34.1404H32.9632H32.4632V28.1173V29.7307ZM35.0234 30.8441H32.0802C31.8254 30.8441 31.6973 30.6651 31.6973 30.5374V27.3105C31.6973 27.1828 31.8254 27.0038 32.0802 27.0038H35.0234C35.2782 27.0038 35.4063 27.1828 35.4063 27.3105V30.5374C35.4063 30.6651 35.2782 30.8441 35.0234 30.8441Z" fill="black" fill-opacity="0.2"/>
<path d="M32.4632 29.7307V30.2307H32.9632H34.1404H34.6404V29.7307V28.1173V27.6173H34.1404H32.9632H32.4632V28.1173V29.7307ZM35.0234 30.8441H32.0802C31.8254 30.8441 31.6973 30.6651 31.6973 30.5374V27.3105C31.6973 27.1828 31.8254 27.0038 32.0802 27.0038H35.0234C35.2782 27.0038 35.4063 27.1828 35.4063 27.3105V30.5374C35.4063 30.6651 35.2782 30.8441 35.0234 30.8441Z" stroke="black"/>
<path d="M32.4632 29.7307V30.2307H32.9632H34.1404H34.6404V29.7307V28.1173V27.6173H34.1404H32.9632H32.4632V28.1173V29.7307ZM35.0234 30.8441H32.0802C31.8254 30.8441 31.6973 30.6651 31.6973 30.5374V27.3105C31.6973 27.1828 31.8254 27.0038 32.0802 27.0038H35.0234C35.2782 27.0038 35.4063 27.1828 35.4063 27.3105V30.5374C35.4063 30.6651 35.2782 30.8441 35.0234 30.8441Z" stroke="black" stroke-opacity="0.2"/>
<defs>
<filter id="filter0_d_202_1886" x="-4" y="11.4447" width="45.0837" height="24.6726" filterUnits="userSpaceOnUse" color-interpolation-filters="sRGB">
<feFlood flood-opacity="0" result="BackgroundImageFix"/>
<feColorMatrix in="SourceAlpha" type="matrix" values="0 0 0 0 0 0 0 0 0 0 0 0 0 0 0 0 0 0 127 0" result="hardAlpha"/>
<feOffset dy="4"/>
<feGaussianBlur stdDeviation="2"/>
<feComposite in2="hardAlpha" operator="out"/>
<feColorMatrix type="matrix" values="0 0 0 0 0 0 0 0 0 0 0 0 0 0 0 0 0 0 0.25 0"/>
<feBlend mode="normal" in2="BackgroundImageFix" result="effect1_dropShadow_202_1886"/>
<feBlend mode="normal" in="SourceGraphic" in2="effect1_dropShadow_202_1886" result="shape"/>
</filter>
<filter id="filter1_d_202_1886" x="0.120361" y="0.150848" width="36.2542" height="30.0502" filterUnits="userSpaceOnUse" color-interpolation-filters="sRGB">
<feFlood flood-opacity="0" result="BackgroundImageFix"/>
<feColorMatrix in="SourceAlpha" type="matrix" values="0 0 0 0 0 0 0 0 0 0 0 0 0 0 0 0 0 0 127 0" result="hardAlpha"/>
<feOffset dy="4"/>
<feGaussianBlur stdDeviation="2"/>
<feComposite in2="hardAlpha" operator="out"/>
<feColorMatrix type="matrix" values="0 0 0 0 0 0 0 0 0 0 0 0 0 0 0 0 0 0 0.25 0"/>
<feBlend mode="normal" in2="BackgroundImageFix" result="effect1_dropShadow_202_1886"/>
<feBlend mode="normal" in="SourceGraphic" in2="effect1_dropShadow_202_1886" result="shape"/>
</filter>
</defs>
</svg>
