<svg width="42" height="41" viewBox="0 0 42 41" fill="none" xmlns="http://www.w3.org/2000/svg">
<g filter="url(#filter0_d_202_1901)">
<path d="M36.3972 26.0375C36.389 26.0375 36.389 26.0375 36.3808 26.0375C32.6976 26.0375 29.7034 23.0516 29.7034 19.3602C29.7034 15.6688 32.6894 12.6828 36.3808 12.6828C36.389 12.6828 36.389 12.6828 36.3972 12.6828C37.037 12.6828 37.4636 12.0102 37.1601 11.4441C34.3136 6.11211 28.678 2.48633 22.2058 2.51914C12.9116 2.56836 5.44678 10.066 5.44678 19.3602C5.44678 28.6625 12.9855 36.2012 22.2878 36.2012C28.7273 36.2012 34.3136 32.5918 37.1519 27.2844C37.4554 26.7184 37.0452 26.0293 36.3972 26.0375ZM25.9054 31.3695C24.5765 31.3695 23.4937 30.2867 23.4937 28.9578C23.4937 27.6289 24.5765 26.5461 25.9054 26.5461C27.2343 26.5461 28.3171 27.6289 28.3171 28.9578C28.3171 30.2867 27.2343 31.3695 25.9054 31.3695Z" fill="#8C325B"/>
<path d="M22.2005 1.51916L22.2007 1.51915C29.059 1.48439 35.0282 5.32738 38.0422 10.9732M22.2005 1.51916L37.1519 27.2844C34.3136 32.5918 28.7273 36.2012 22.2878 36.2012C12.9855 36.2012 5.44678 28.6625 5.44678 19.3602C5.44678 10.066 12.9116 2.56836 22.2058 2.51914C28.678 2.48633 34.3136 6.11211 37.1601 11.4441C37.4636 12.0102 37.037 12.6828 36.3972 12.6828H36.3808C32.6894 12.6828 29.7034 15.6688 29.7034 19.3602C29.7034 23.0516 32.6976 26.0375 36.3808 26.0375H36.3972M22.2005 1.51916C12.3567 1.57129 4.44678 9.51527 4.44678 19.3602C4.44678 29.2148 12.4332 37.2012 22.2878 37.2012C29.1109 37.2012 35.0282 33.3755 38.0334 27.7565M22.2005 1.51916L38.0334 27.7565M38.0422 10.9732L37.1603 11.444L38.0414 10.9716C38.0417 10.9721 38.0419 10.9727 38.0422 10.9732ZM38.0422 10.9732C38.7225 12.2445 37.747 13.6828 36.3972 13.6828H36.3971H36.3971H36.397H36.397H36.3969H36.3969H36.3968H36.3968H36.3968H36.3967H36.3967H36.3966H36.3966H36.3965H36.3965H36.3964H36.3964H36.3963H36.3963H36.3963H36.3962H36.3962H36.3961H36.3961H36.396H36.396H36.3959H36.3959H36.3959H36.3958H36.3958H36.3957H36.3957H36.3956H36.3956H36.3956H36.3955H36.3955H36.3954H36.3954H36.3954H36.3953H36.3953H36.3952H36.3952H36.3952H36.3951H36.3951H36.395H36.395H36.395H36.3949H36.3949H36.3948H36.3948H36.3948H36.3947H36.3947H36.3946H36.3946H36.3946H36.3945H36.3945H36.3945H36.3944H36.3944H36.3943H36.3943H36.3943H36.3942H36.3942H36.3942H36.3941H36.3941H36.394H36.394H36.394H36.3939H36.3939H36.3939H36.3938H36.3938H36.3938H36.3937H36.3937H36.3937H36.3936H36.3936H36.3936H36.3935H36.3935H36.3935H36.3934H36.3934H36.3934H36.3933H36.3933H36.3933H36.3932H36.3932H36.3932H36.3931H36.3931H36.3931H36.393H36.393H36.393H36.3929H36.3929H36.3929H36.3928H36.3928H36.3928H36.3927H36.3927H36.3927H36.3926H36.3926H36.3926H36.3926H36.3925H36.3925H36.3925H36.3924H36.3924H36.3924H36.3923H36.3923H36.3923H36.3922H36.3922H36.3922H36.3922H36.3921H36.3921H36.3921H36.392H36.392H36.392H36.392H36.3919H36.3919H36.3919H36.3918H36.3918H36.3918H36.3918H36.3917H36.3917H36.3917H36.3916H36.3916H36.3916H36.3916H36.3915H36.3915H36.3915H36.3914H36.3914H36.3914H36.3914H36.3913H36.3913H36.3913H36.3913H36.3912H36.3912H36.3912H36.3911H36.3911H36.3911H36.3911H36.391H36.391H36.391H36.391H36.3909H36.3909H36.3909H36.3909H36.3908H36.3908H36.3908H36.3908H36.3907H36.3907H36.3907H36.3906H36.3906H36.3906H36.3906H36.3905H36.3905H36.3905H36.3905H36.3904H36.3904H36.3904H36.3904H36.3903H36.3903H36.3903H36.3903H36.3902H36.3902H36.3902H36.3902H36.3901H36.3901H36.3901H36.3901H36.39H36.39H36.39H36.39H36.3899H36.3899H36.3899H36.3899H36.3898H36.3898H36.3898H36.3898H36.3897H36.3897H36.3897H36.3897H36.3897H36.3896H36.3896H36.3896H36.3896H36.3895H36.3895H36.3895H36.3895H36.3894H36.3894H36.3894H36.3894H36.3893H36.3893H36.3893H36.3893H36.3892H36.3892H36.3892H36.3892H36.3891H36.3891H36.3891H36.3891H36.389H36.389H36.389H36.389H36.389H36.3889H36.3889H36.3889H36.3889H36.3888H36.3888H36.3888H36.3888H36.3887H36.3887H36.3887H36.3887H36.3886H36.3886H36.3886H36.3886H36.3885H36.3885H36.3885H36.3885H36.3884H36.3884H36.3884H36.3884H36.3883H36.3883H36.3883H36.3883H36.3883H36.3882H36.3882H36.3882H36.3882H36.3881H36.3881H36.3881H36.3881H36.388H36.388H36.388H36.388H36.3879H36.3879H36.3879H36.3879H36.3878H36.3878H36.3878H36.3878H36.3877H36.3877H36.3877H36.3877H36.3876H36.3876H36.3876H36.3876H36.3875H36.3875H36.3875H36.3875H36.3874H36.3874H36.3874H36.3874H36.3873H36.3873H36.3873H36.3872H36.3872H36.3872H36.3872H36.3871H36.3871H36.3871H36.3871H36.387H36.387H36.387H36.387H36.3869H36.3869H36.3869H36.3869H36.3868H36.3868H36.3868H36.3867H36.3867H36.3867H36.3867H36.3866H36.3866H36.3866H36.3866H36.3865H36.3865H36.3865H36.3864H36.3864H36.3864H36.3864H36.3863H36.3863H36.3863H36.3863H36.3862H36.3862H36.3862H36.3861H36.3861H36.3861H36.3861H36.386H36.386H36.386H36.3859H36.3859H36.3859H36.3858H36.3858H36.3858H36.3858H36.3857H36.3857H36.3857H36.3856H36.3856H36.3856H36.3856H36.3855H36.3855H36.3855H36.3854H36.3854H36.3854H36.3853H36.3853H36.3853H36.3852H36.3852H36.3852H36.3851H36.3851H36.3851H36.3851H36.385H36.385H36.385H36.3849H36.3849H36.3849H36.3848H36.3848H36.3848H36.3847H36.3847H36.3847H36.3846H36.3846H36.3846H36.3845H36.3845H36.3845H36.3844H36.3844H36.3844H36.3843H36.3843H36.3843H36.3842H36.3842H36.3841H36.3841H36.3841H36.384H36.384H36.384H36.3839H36.3839H36.3839H36.3838H36.3838H36.3838H36.3837H36.3837H36.3836H36.3836H36.3836H36.3835H36.3835H36.3835H36.3834H36.3834H36.3833H36.3833H36.3833H36.3832H36.3832H36.3832H36.3831H36.3831H36.383H36.383H36.383H36.3829H36.3829H36.3828H36.3828H36.3828H36.3827H36.3827H36.3826H36.3826H36.3826H36.3825H36.3825H36.3824H36.3824H36.3823H36.3823H36.3823H36.3822H36.3822H36.3821H36.3821H36.382H36.382H36.382H36.3819H36.3819H36.3818H36.3818H36.3817H36.3817H36.3817H36.3816H36.3816H36.3815H36.3815H36.3814H36.3814H36.3813H36.3813H36.3812H36.3812H36.3811H36.3811H36.3811H36.381H36.381H36.3809H36.3809H36.3808H36.3808C33.2416 13.6828 30.7034 16.221 30.7034 19.3602C30.7034 22.4985 33.2491 25.0375 36.3808 25.0375H36.3808H36.3809H36.3809H36.381H36.381H36.3811H36.3811H36.3811H36.3812H36.3812H36.3813H36.3813H36.3814H36.3814H36.3815H36.3815H36.3816H36.3816H36.3817H36.3817H36.3817H36.3818H36.3818H36.3819H36.3819H36.382H36.382H36.382H36.3821H36.3821H36.3822H36.3822H36.3823H36.3823H36.3823H36.3824H36.3824H36.3825H36.3825H36.3826H36.3826H36.3826H36.3827H36.3827H36.3828H36.3828H36.3828H36.3829H36.3829H36.383H36.383H36.383H36.3831H36.3831H36.3832H36.3832H36.3832H36.3833H36.3833H36.3833H36.3834H36.3834H36.3835H36.3835H36.3835H36.3836H36.3836H36.3836H36.3837H36.3837H36.3838H36.3838H36.3838H36.3839H36.3839H36.3839H36.384H36.384H36.384H36.3841H36.3841H36.3841H36.3842H36.3842H36.3843H36.3843H36.3843H36.3844H36.3844H36.3844H36.3845H36.3845H36.3845H36.3846H36.3846H36.3846H36.3847H36.3847H36.3847H36.3848H36.3848H36.3848H36.3849H36.3849H36.3849H36.385H36.385H36.385H36.3851H36.3851H36.3851H36.3851H36.3852H36.3852H36.3852H36.3853H36.3853H36.3853H36.3854H36.3854H36.3854H36.3855H36.3855H36.3855H36.3856H36.3856H36.3856H36.3856H36.3857H36.3857H36.3857H36.3858H36.3858H36.3858H36.3858H36.3859H36.3859H36.3859H36.386H36.386H36.386H36.3861H36.3861H36.3861H36.3861H36.3862H36.3862H36.3862H36.3863H36.3863H36.3863H36.3863H36.3864H36.3864H36.3864H36.3864H36.3865H36.3865H36.3865H36.3866H36.3866H36.3866H36.3866H36.3867H36.3867H36.3867H36.3867H36.3868H36.3868H36.3868H36.3869H36.3869H36.3869H36.3869H36.387H36.387H36.387H36.387H36.3871H36.3871H36.3871H36.3871H36.3872H36.3872H36.3872H36.3872H36.3873H36.3873H36.3873H36.3874H36.3874H36.3874H36.3874H36.3875H36.3875H36.3875H36.3875H36.3876H36.3876H36.3876H36.3876H36.3877H36.3877H36.3877H36.3877H36.3878H36.3878H36.3878H36.3878H36.3879H36.3879H36.3879H36.3879H36.388H36.388H36.388H36.388H36.3881H36.3881H36.3881H36.3881H36.3882H36.3882H36.3882H36.3882H36.3883H36.3883H36.3883H36.3883H36.3883H36.3884H36.3884H36.3884H36.3884H36.3885H36.3885H36.3885H36.3885H36.3886H36.3886H36.3886H36.3886H36.3887H36.3887H36.3887H36.3887H36.3888H36.3888H36.3888H36.3888H36.3889H36.3889H36.3889H36.3889H36.389H36.389H36.389H36.389H36.389H36.3891H36.3891H36.3891H36.3891H36.3892H36.3892H36.3892H36.3892H36.3893H36.3893H36.3893H36.3893H36.3894H36.3894H36.3894H36.3894H36.3895H36.3895H36.3895H36.3895H36.3896H36.3896H36.3896H36.3896H36.3897H36.3897H36.3897H36.3897H36.3897H36.3898H36.3898H36.3898H36.3898H36.3899H36.3899H36.3899H36.3899H36.39H36.39H36.39H36.39H36.3901H36.3901H36.3901H36.3901H36.3902H36.3902H36.3902H36.3902H36.3903H36.3903H36.3903H36.3903H36.3904H36.3904H36.3904H36.3904H36.3905H36.3905H36.3905H36.3905H36.3906H36.3906H36.3906H36.3906H36.3907H36.3907H36.3907H36.3908H36.3908H36.3908H36.3908H36.3909H36.3909H36.3909H36.3909H36.391H36.391H36.391H36.391H36.3911H36.3911H36.3911H36.3911H36.3912H36.3912H36.3912H36.3913H36.3913H36.3913H36.3913H36.3914H36.3914H36.3914H36.3914H36.3915H36.3915H36.3915H36.3916H36.3916H36.3916H36.3916H36.3917H36.3917H36.3917H36.3918H36.3918H36.3918H36.3918H36.3919H36.3919H36.3919H36.392M36.392 25.0375C36.3895 25.0375 36.387 25.0376 36.3845 25.0376L36.3972 26.0375M36.392 25.0375C37.8073 25.0249 38.6903 26.5308 38.0334 27.7565M36.392 25.0375H36.392H36.392H36.392H36.3921H36.3921H36.3921H36.3922H36.3922H36.3922H36.3922H36.3923H36.3923H36.3923H36.3924H36.3924H36.3924H36.3925H36.3925H36.3925H36.3926H36.3926H36.3926H36.3926H36.3927H36.3927H36.3927H36.3928H36.3928H36.3928H36.3929H36.3929H36.3929H36.393H36.393H36.393H36.3931H36.3931H36.3931H36.3932H36.3932H36.3932H36.3933H36.3933H36.3933H36.3934H36.3934H36.3934H36.3935H36.3935H36.3935H36.3936H36.3936H36.3936H36.3937H36.3937H36.3937H36.3938H36.3938H36.3938H36.3939H36.3939H36.3939H36.394H36.394H36.394H36.3941H36.3941H36.3942H36.3942H36.3942H36.3943H36.3943H36.3943H36.3944H36.3944H36.3945H36.3945H36.3945H36.3946H36.3946H36.3946H36.3947H36.3947H36.3948H36.3948H36.3948H36.3949H36.3949H36.395H36.395H36.395H36.3951H36.3951H36.3952H36.3952H36.3952H36.3953H36.3953H36.3954H36.3954H36.3954H36.3955H36.3955H36.3956H36.3956H36.3956H36.3957H36.3957H36.3958H36.3958H36.3959H36.3959H36.3959H36.396H36.396H36.3961H36.3961H36.3962H36.3962H36.3963H36.3963H36.3963H36.3964H36.3964H36.3965H36.3965H36.3966H36.3966H36.3967H36.3967H36.3968H36.3968H36.3968H36.3969H36.3969H36.397H36.397H36.3971H36.3971H36.3972V26.0375M36.3972 26.0375L38.0334 27.7565M25.9054 30.3695C25.1288 30.3695 24.4937 29.7344 24.4937 28.9578C24.4937 28.1812 25.1288 27.5461 25.9054 27.5461C26.682 27.5461 27.3171 28.1812 27.3171 28.9578C27.3171 29.7344 26.682 30.3695 25.9054 30.3695Z" stroke="black" stroke-width="2"/>
</g>
<path d="M17.2511 14.4301C18.6148 14.4301 19.7203 12.8839 19.7203 10.9766C19.7203 9.06923 18.6148 7.52304 17.2511 7.52304C15.8875 7.52304 14.782 9.06923 14.782 10.9766C14.782 12.8839 15.8875 14.4301 17.2511 14.4301Z" fill="#EEAC68"/>
<path d="M15.4218 14.4301C16.7854 14.4301 17.8909 12.8839 17.8909 10.9766C17.8909 9.06923 16.7854 7.52304 15.4218 7.52304C14.0581 7.52304 12.9526 9.06923 12.9526 10.9766C12.9526 12.8839 14.0581 14.4301 15.4218 14.4301Z" fill="white"/>
<path d="M16.1228 14.4294C17.2281 14.4072 18.0929 12.8433 18.0546 10.9364C18.0163 9.02943 17.0893 7.50156 15.9841 7.52377C14.8789 7.54598 14.014 9.10986 14.0523 11.0168C14.0906 12.9237 15.0176 14.4516 16.1228 14.4294Z" fill="#EEAC68"/>
<path d="M27.1276 12.6336C28.4913 12.6336 29.5967 11.0874 29.5967 9.18008C29.5967 7.27275 28.4913 5.72656 27.1276 5.72656C25.7639 5.72656 24.6584 7.27275 24.6584 9.18008C24.6584 11.0874 25.7639 12.6336 27.1276 12.6336Z" fill="#3769A5"/>
<path d="M25.2902 12.6336C26.6539 12.6336 27.7593 11.0874 27.7593 9.18008C27.7593 7.27275 26.6539 5.72656 25.2902 5.72656C23.9265 5.72656 22.821 7.27275 22.821 9.18008C22.821 11.0874 23.9265 12.6336 25.2902 12.6336Z" fill="white"/>
<path d="M25.93 12.6336C27.0355 12.6336 27.9316 11.0874 27.9316 9.18008C27.9316 7.27275 27.0355 5.72656 25.93 5.72656C24.8246 5.72656 23.9285 7.27275 23.9285 9.18008C23.9285 11.0874 24.8246 12.6336 25.93 12.6336Z" fill="#4E9BD4"/>
<path d="M12.8788 23.4535C14.2425 23.4535 15.3479 21.9073 15.3479 20C15.3479 18.0927 14.2425 16.5465 12.8788 16.5465C11.5151 16.5465 10.4097 18.0927 10.4097 20C10.4097 21.9073 11.5151 23.4535 12.8788 23.4535Z" fill="#EEAC68"/>
<path d="M11.0495 23.4535C12.4131 23.4535 13.5186 21.9073 13.5186 20C13.5186 18.0927 12.4131 16.5465 11.0495 16.5465C9.68579 16.5465 8.58032 18.0927 8.58032 20C8.58032 21.9073 9.68579 23.4535 11.0495 23.4535Z" fill="white"/>
<path d="M11.681 23.4535C12.7864 23.4535 13.6826 21.9073 13.6826 20C13.6826 18.0927 12.7864 16.5465 11.681 16.5465C10.5756 16.5465 9.67944 18.0927 9.67944 20C9.67944 21.9073 10.5756 23.4535 11.681 23.4535Z" fill="#8C325B"/>
<path d="M17.1774 31.8043C18.5411 31.8043 19.6465 30.2581 19.6465 28.3508C19.6465 26.4435 18.5411 24.8973 17.1774 24.8973C15.8137 24.8973 14.7083 26.4435 14.7083 28.3508C14.7083 30.2581 15.8137 31.8043 17.1774 31.8043Z" fill="#EEAC68"/>
<path d="M15.348 31.8043C16.7117 31.8043 17.8172 30.2581 17.8172 28.3508C17.8172 26.4435 16.7117 24.8973 15.348 24.8973C13.9844 24.8973 12.8789 26.4435 12.8789 28.3508C12.8789 30.2581 13.9844 31.8043 15.348 31.8043Z" fill="white"/>
<path d="M15.9796 31.8043C17.085 31.8043 17.9812 30.2581 17.9812 28.3508C17.9812 26.4435 17.085 24.8973 15.9796 24.8973C14.8742 24.8973 13.978 26.4435 13.978 28.3508C13.978 30.2581 14.8742 31.8043 15.9796 31.8043Z" fill="#EEAC68"/>
<path d="M16.2667 14.9223C14.0929 14.9223 12.321 13.1504 12.321 10.9766C12.321 8.80273 14.0929 7.03085 16.2667 7.03085C18.4406 7.03085 20.2125 8.80273 20.2125 10.9766C20.2125 13.1504 18.4406 14.9223 16.2667 14.9223ZM16.2667 8.01523C14.6343 8.01523 13.3054 9.34413 13.3054 10.9766C13.3054 12.609 14.6343 13.9379 16.2667 13.9379C17.8992 13.9379 19.2281 12.609 19.2281 10.9766C19.2281 9.34413 17.8992 8.01523 16.2667 8.01523Z" fill="black"/>
<path d="M26.2089 13.1258C24.0351 13.1258 22.2632 11.3539 22.2632 9.18008C22.2632 7.00625 24.0351 5.23438 26.2089 5.23438C28.3827 5.23438 30.1546 7.00625 30.1546 9.18008C30.1546 11.3539 28.3827 13.1258 26.2089 13.1258ZM26.2089 6.21875C24.5765 6.21875 23.2476 7.54766 23.2476 9.18008C23.2476 10.8125 24.5765 12.1414 26.2089 12.1414C27.8413 12.1414 29.1702 10.8125 29.1702 9.18008C29.1702 7.54766 27.8413 6.21875 26.2089 6.21875Z" fill="black"/>
<path d="M11.9601 23.9457C9.78628 23.9457 8.0144 22.1738 8.0144 20C8.0144 17.8262 9.78628 16.0543 11.9601 16.0543C14.1339 16.0543 15.9058 17.8262 15.9058 20C15.9058 22.1738 14.1339 23.9457 11.9601 23.9457ZM11.9601 17.0387C10.3277 17.0387 8.99878 18.3676 8.99878 20C8.99878 21.6324 10.3277 22.9613 11.9601 22.9613C13.5925 22.9613 14.9214 21.6324 14.9214 20C14.9214 18.3676 13.5925 17.0387 11.9601 17.0387Z" fill="black"/>
<path d="M16.2667 32.2965C14.0929 32.2965 12.321 30.5246 12.321 28.3508C12.321 26.1769 14.0929 24.4051 16.2667 24.4051C18.4406 24.4051 20.2125 26.1769 20.2125 28.3508C20.2125 30.5246 18.4406 32.2965 16.2667 32.2965ZM16.2667 25.3895C14.6343 25.3895 13.3054 26.7184 13.3054 28.3508C13.3054 29.9832 14.6343 31.3121 16.2667 31.3121C17.8992 31.3121 19.2281 29.9832 19.2281 28.3508C19.2281 26.7184 17.8992 25.3895 16.2667 25.3895Z" fill="black"/>
<defs>
<filter id="filter0_d_202_1901" x="-0.553223" y="0.518921" width="43.8223" height="45.6823" filterUnits="userSpaceOnUse" color-interpolation-filters="sRGB">
<feFlood flood-opacity="0" result="BackgroundImageFix"/>
<feColorMatrix in="SourceAlpha" type="matrix" values="0 0 0 0 0 0 0 0 0 0 0 0 0 0 0 0 0 0 127 0" result="hardAlpha"/>
<feOffset dy="4"/>
<feGaussianBlur stdDeviation="2"/>
<feComposite in2="hardAlpha" operator="out"/>
<feColorMatrix type="matrix" values="0 0 0 0 0 0 0 0 0 0 0 0 0 0 0 0 0 0 0.25 0"/>
<feBlend mode="normal" in2="BackgroundImageFix" result="effect1_dropShadow_202_1901"/>
<feBlend mode="normal" in="SourceGraphic" in2="effect1_dropShadow_202_1901" result="shape"/>
</filter>
</defs>
</svg>
