<svg width="30" height="30" viewBox="0 0 30 30" fill="none" xmlns="http://www.w3.org/2000/svg">
<path d="M15.3626 10.377C14.9704 9.98822 14.9676 9.35507 15.3563 8.9628C15.7451 8.57054 16.3783 8.56772 16.7705 8.95649L18.6921 10.861C19.407 11.5695 20.0032 12.1604 20.4283 12.6897C20.8742 13.245 21.2134 13.8285 21.304 14.5394C21.3235 14.6924 21.3333 14.8462 21.3333 15.0001C21.3333 15.1539 21.3235 15.3078 21.304 15.4607C21.2134 16.1717 20.8742 16.7552 20.4283 17.3104C20.0032 17.8398 19.407 18.4307 18.6921 19.1392L16.7705 21.0437C16.3783 21.4324 15.7451 21.4296 15.3563 21.0374C14.9676 20.6451 14.9704 20.0119 15.3626 19.6232L17.2431 17.7594C18.0097 16.9996 18.5235 16.4883 18.8689 16.0581C18.8848 16.0384 18.9001 16.019 18.9149 16.0001H9.66658C9.1143 16.0001 8.66658 15.5524 8.66658 15.0001C8.66658 14.4478 9.1143 14.0001 9.66658 14.0001H18.9149C18.9001 13.9811 18.8848 13.9618 18.8689 13.9421C18.5235 13.5119 18.0097 13.0005 17.2431 12.2408L15.3626 10.377Z" fill="#5D5B61"/>
<path fill-rule="evenodd" clip-rule="evenodd" d="M14.9999 0.666748C22.916 0.666748 29.3333 7.084 29.3333 15.0001C29.3333 22.9162 22.916 29.3334 14.9999 29.3334C7.08384 29.3334 0.666584 22.9162 0.666584 15.0001C0.666584 7.084 7.08384 0.666748 14.9999 0.666748ZM27.3333 15.0001C27.3333 8.18857 21.8114 2.66675 14.9999 2.66675C8.18841 2.66675 2.66658 8.18857 2.66658 15.0001C2.66658 21.8116 8.18841 27.3334 14.9999 27.3334C21.8114 27.3334 27.3333 21.8116 27.3333 15.0001Z" fill="#5D5B61"/>
</svg>
