<svg width="31" height="30" viewBox="0 0 31 30" fill="none" xmlns="http://www.w3.org/2000/svg">
<path fill-rule="evenodd" clip-rule="evenodd" d="M3.95827 15C3.95827 12.6184 4.6645 10.2903 5.98766 8.31001C7.31082 6.32977 9.19147 4.78636 11.3918 3.87495C13.5921 2.96355 16.0133 2.72508 18.3492 3.18971C20.685 3.65434 22.8306 4.8012 24.5147 6.48526C26.1987 8.16931 27.3456 10.3149 27.8102 12.6508C28.2749 14.9866 28.0364 17.4078 27.125 19.6081C26.2136 21.8085 24.6702 23.6891 22.6899 25.0123C20.7097 26.3354 18.3816 27.0417 15.9999 27.0417C13.7217 27.0457 11.4896 26.4 9.56544 25.1802C9.39428 25.0719 9.2019 25.0016 9.00126 24.974C8.80063 24.9464 8.5964 24.9621 8.40236 25.0201L4.32236 26.237L5.85944 22.6429C5.94878 22.4337 5.98642 22.206 5.96915 21.9791C5.95189 21.7523 5.88025 21.5329 5.76027 21.3396C4.57867 19.4364 3.95438 17.2401 3.95827 15V15ZM15.9999 0.125C7.78469 0.125 1.12494 6.78475 1.12494 15C1.12494 17.6038 1.79502 20.0547 2.97369 22.1867L0.52994 27.9016C0.424171 28.1491 0.391127 28.4217 0.434677 28.6874C0.478227 28.953 0.596568 29.2008 0.775841 29.4016C0.955114 29.6024 1.1879 29.748 1.44693 29.8213C1.70596 29.8946 1.98051 29.8926 2.23844 29.8155L8.61344 27.9143C10.8617 29.2027 13.4087 29.8788 15.9999 29.875C24.2152 29.875 30.8749 23.2152 30.8749 15C30.8749 6.78475 24.2152 0.125 15.9999 0.125ZM19.2484 18.0912L17.3854 19.403C16.359 18.8125 15.4166 18.0868 14.5833 17.2454C13.6887 16.3521 12.9152 15.3452 12.2826 14.2506L13.4655 13.2462C13.712 13.037 13.8796 12.7499 13.9404 12.4324C14.0012 12.115 13.9516 11.7862 13.7999 11.5008L12.2925 8.6675C12.1922 8.47933 12.0507 8.31623 11.8786 8.19037C11.7065 8.0645 11.5082 7.97912 11.2984 7.94058C11.0887 7.90204 10.873 7.91134 10.6674 7.96779C10.4617 8.02423 10.2715 8.12637 10.1109 8.26658L9.66319 8.65617C8.58794 9.594 7.95186 11.1353 8.47886 12.6965C9.32674 15.1659 10.7298 17.4079 12.5801 19.25C15.1485 21.8184 17.758 22.8299 19.2852 23.2237C20.5149 23.5397 21.6779 23.1161 22.4982 22.4474L23.3354 21.7646C23.512 21.6206 23.6512 21.4363 23.7413 21.2271C23.8314 21.0179 23.8697 20.7901 23.853 20.5629C23.8363 20.3358 23.7651 20.116 23.6454 19.9222C23.5257 19.7284 23.3611 19.5664 23.1654 19.4497L20.7883 18.0331C20.5532 17.8928 20.2825 17.8237 20.009 17.834C19.7355 17.8443 19.4708 17.9336 19.2469 18.0912H19.2484Z" fill="#5D5B61" fill-opacity="0.7"/>
</svg>
