<svg width="39" height="40" viewBox="0 0 39 40" fill="none" xmlns="http://www.w3.org/2000/svg">
<g filter="url(#filter0_d_202_2260)">
<path fill-rule="evenodd" clip-rule="evenodd" d="M7.95827 17C7.95827 14.6184 8.6645 12.2903 9.98766 10.31C11.3108 8.32977 13.1915 6.78636 15.3918 5.87495C17.5921 4.96355 20.0133 4.72508 22.3492 5.18971C24.685 5.65434 26.8306 6.8012 28.5147 8.48526C30.1987 10.1693 31.3456 12.3149 31.8102 14.6508C32.2749 16.9866 32.0364 19.4078 31.125 21.6081C30.2136 23.8085 28.6702 25.6891 26.6899 27.0123C24.7097 28.3354 22.3816 29.0417 19.9999 29.0417C17.7217 29.0457 15.4896 28.4 13.5654 27.1802C13.3943 27.0719 13.2019 27.0016 13.0013 26.974C12.8006 26.9464 12.5964 26.9621 12.4024 27.0201L8.32236 28.237L9.85944 24.6429C9.94878 24.4337 9.98642 24.206 9.96915 23.9791C9.95189 23.7523 9.88025 23.5329 9.76027 23.3396C8.57867 21.4364 7.95438 19.2401 7.95827 17V17ZM19.9999 2.125C11.7847 2.125 5.12494 8.78475 5.12494 17C5.12494 19.6038 5.79502 22.0547 6.97369 24.1867L4.52994 29.9016C4.42417 30.1491 4.39113 30.4217 4.43468 30.6874C4.47823 30.953 4.59657 31.2008 4.77584 31.4016C4.95511 31.6024 5.1879 31.748 5.44693 31.8213C5.70596 31.8946 5.98051 31.8926 6.23844 31.8155L12.6134 29.9143C14.8617 31.2027 17.4087 31.8788 19.9999 31.875C28.2152 31.875 34.8749 25.2152 34.8749 17C34.8749 8.78475 28.2152 2.125 19.9999 2.125ZM23.2484 20.0912L21.3854 21.403C20.359 20.8125 19.4166 20.0868 18.5833 19.2454C17.6887 18.3521 16.9152 17.3452 16.2826 16.2506L17.4655 15.2462C17.712 15.037 17.8796 14.7499 17.9404 14.4324C18.0012 14.115 17.9516 13.7862 17.7999 13.5008L16.2925 10.6675C16.1922 10.4793 16.0507 10.3162 15.8786 10.1904C15.7065 10.0645 15.5082 9.97912 15.2984 9.94058C15.0887 9.90204 14.873 9.91134 14.6674 9.96779C14.4617 10.0242 14.2715 10.1264 14.1109 10.2666L13.6632 10.6562C12.5879 11.594 11.9519 13.1353 12.4789 14.6965C13.3267 17.1659 14.7298 19.4079 16.5801 21.25C19.1485 23.8184 21.758 24.8299 23.2852 25.2237C24.5149 25.5397 25.6779 25.1161 26.4982 24.4474L27.3354 23.7646C27.512 23.6206 27.6512 23.4363 27.7413 23.2271C27.8314 23.0179 27.8697 22.7901 27.853 22.5629C27.8363 22.3358 27.7651 22.116 27.6454 21.9222C27.5257 21.7284 27.3611 21.5664 27.1654 21.4497L24.7883 20.0331C24.5532 19.8928 24.2825 19.8237 24.009 19.834C23.7355 19.8443 23.4708 19.9336 23.2469 20.0912H23.2484Z" fill="#5D5B61" fill-opacity="0.7"/>
</g>
<defs>
<filter id="filter0_d_202_2260" x="-1" y="0" width="42" height="42" filterUnits="userSpaceOnUse" color-interpolation-filters="sRGB">
<feFlood flood-opacity="0" result="BackgroundImageFix"/>
<feColorMatrix in="SourceAlpha" type="matrix" values="0 0 0 0 0 0 0 0 0 0 0 0 0 0 0 0 0 0 127 0" result="hardAlpha"/>
<feOffset dy="4"/>
<feGaussianBlur stdDeviation="2"/>
<feComposite in2="hardAlpha" operator="out"/>
<feColorMatrix type="matrix" values="0 0 0 0 0 0 0 0 0 0 0 0 0 0 0 0 0 0 0.25 0"/>
<feBlend mode="normal" in2="BackgroundImageFix" result="effect1_dropShadow_202_2260"/>
<feBlend mode="normal" in="SourceGraphic" in2="effect1_dropShadow_202_2260" result="shape"/>
</filter>
</defs>
</svg>
