<svg width="18" height="18" viewBox="0 0 18 18" fill="none" xmlns="http://www.w3.org/2000/svg">
<path d="M3.57064 2.7464C3.62362 2.69342 3.65012 2.66693 3.67346 2.64548C4.24732 2.11817 5.12941 2.11817 5.70327 2.64548C5.72661 2.66693 5.7531 2.69342 5.80609 2.7464L6.89974 3.84005C7.50128 4.44159 7.67332 5.35002 7.33339 6.12986C6.99346 6.90969 7.1655 7.81812 7.76704 8.41966L9.56464 10.2173C10.1662 10.8188 11.0746 10.9909 11.8545 10.6509C12.6343 10.311 13.5427 10.483 14.1443 11.0846L15.2379 12.1782C15.2909 12.2312 15.3174 12.2577 15.3388 12.281C15.8661 12.8549 15.8661 13.737 15.3388 14.3109C15.3174 14.3342 15.2909 14.3607 15.2379 14.4137L14.5731 15.0784C14.0318 15.6198 13.2514 15.847 12.5041 15.6809C7.41186 14.5493 3.43496 10.5724 2.30336 5.48025C2.13729 4.7329 2.36454 3.95251 2.90588 3.41116L3.57064 2.7464Z" stroke="white"/>
</svg>
